<svg width="553" height="251" viewBox="0 0 553 251" fill="none" xmlns="http://www.w3.org/2000/svg">
<circle cx="548.699" cy="4.12568" r="4.12556" transform="rotate(90 548.699 4.12568)" fill="#2C3241"/>
<circle cx="548.699" cy="64.6335" r="4.12556" transform="rotate(90 548.699 64.6335)" fill="#2C3241"/>
<circle cx="548.699" cy="125.142" r="4.12556" transform="rotate(90 548.699 125.142)" fill="#2C3241"/>
<circle cx="548.699" cy="185.65" r="4.12556" transform="rotate(90 548.699 185.65)" fill="#2C3241"/>
<circle cx="548.699" cy="246.158" r="4.12556" transform="rotate(90 548.699 246.158)" fill="#2C3241"/>
<circle cx="488.191" cy="4.12532" r="4.12556" transform="rotate(90 488.191 4.12532)" fill="#2C3241"/>
<circle cx="488.191" cy="64.6335" r="4.12556" transform="rotate(90 488.191 64.6335)" fill="#2C3241"/>
<circle cx="488.191" cy="125.142" r="4.12556" transform="rotate(90 488.191 125.142)" fill="#2C3241"/>
<circle cx="488.191" cy="185.65" r="4.12556" transform="rotate(90 488.191 185.65)" fill="#2C3241"/>
<circle cx="488.191" cy="246.158" r="4.12556" transform="rotate(90 488.191 246.158)" fill="#2C3241"/>
<circle cx="427.683" cy="4.12532" r="4.12556" transform="rotate(90 427.683 4.12532)" fill="#2C3241"/>
<circle cx="427.683" cy="64.6335" r="4.12556" transform="rotate(90 427.683 64.6335)" fill="#2C3241"/>
<circle cx="427.683" cy="125.142" r="4.12556" transform="rotate(90 427.683 125.142)" fill="#2C3241"/>
<circle cx="427.683" cy="185.65" r="4.12556" transform="rotate(90 427.683 185.65)" fill="#2C3241"/>
<circle cx="427.683" cy="246.158" r="4.12556" transform="rotate(90 427.683 246.158)" fill="#2C3241"/>
<circle cx="367.175" cy="4.12532" r="4.12556" transform="rotate(90 367.175 4.12532)" fill="#2C3241"/>
<circle cx="367.175" cy="64.6335" r="4.12556" transform="rotate(90 367.175 64.6335)" fill="#2C3241"/>
<circle cx="367.175" cy="125.142" r="4.12556" transform="rotate(90 367.175 125.142)" fill="#2C3241"/>
<circle cx="367.175" cy="185.65" r="4.12556" transform="rotate(90 367.175 185.65)" fill="#2C3241"/>
<circle cx="367.175" cy="246.158" r="4.12556" transform="rotate(90 367.175 246.158)" fill="#2C3241"/>
<circle cx="306.667" cy="4.12532" r="4.12556" transform="rotate(90 306.667 4.12532)" fill="#2C3241"/>
<circle cx="306.667" cy="64.6335" r="4.12556" transform="rotate(90 306.667 64.6335)" fill="#2C3241"/>
<circle cx="306.667" cy="125.142" r="4.12556" transform="rotate(90 306.667 125.142)" fill="#2C3241"/>
<circle cx="306.667" cy="185.65" r="4.12556" transform="rotate(90 306.667 185.65)" fill="#2C3241"/>
<circle cx="306.667" cy="246.158" r="4.12556" transform="rotate(90 306.667 246.158)" fill="#2C3241"/>
<circle cx="246.158" cy="4.12532" r="4.12556" transform="rotate(90 246.158 4.12532)" fill="#2C3241"/>
<circle cx="246.158" cy="64.6335" r="4.12556" transform="rotate(90 246.158 64.6335)" fill="#2C3241"/>
<circle cx="246.158" cy="125.142" r="4.12556" transform="rotate(90 246.158 125.142)" fill="#2C3241"/>
<circle cx="246.158" cy="185.65" r="4.12556" transform="rotate(90 246.158 185.65)" fill="#2C3241"/>
<circle cx="246.158" cy="246.158" r="4.12556" transform="rotate(90 246.158 246.158)" fill="#2C3241"/>
<circle cx="185.65" cy="4.12532" r="4.12556" transform="rotate(90 185.65 4.12532)" fill="#2C3241"/>
<circle cx="185.65" cy="64.6335" r="4.12556" transform="rotate(90 185.65 64.6335)" fill="#2C3241"/>
<circle cx="185.65" cy="125.142" r="4.12556" transform="rotate(90 185.65 125.142)" fill="#2C3241"/>
<circle cx="185.65" cy="185.65" r="4.12556" transform="rotate(90 185.65 185.65)" fill="#2C3241"/>
<circle cx="185.65" cy="246.158" r="4.12556" transform="rotate(90 185.65 246.158)" fill="#2C3241"/>
<circle cx="125.142" cy="4.12532" r="4.12556" transform="rotate(90 125.142 4.12532)" fill="#2C3241"/>
<circle cx="125.142" cy="64.6335" r="4.12556" transform="rotate(90 125.142 64.6335)" fill="#2C3241"/>
<circle cx="125.142" cy="125.142" r="4.12556" transform="rotate(90 125.142 125.142)" fill="#2C3241"/>
<circle cx="125.142" cy="185.65" r="4.12556" transform="rotate(90 125.142 185.65)" fill="#2C3241"/>
<circle cx="125.142" cy="246.158" r="4.12556" transform="rotate(90 125.142 246.158)" fill="#2C3241"/>
<circle cx="64.6335" cy="4.12532" r="4.12556" transform="rotate(90 64.6335 4.12532)" fill="#2C3241"/>
<circle cx="64.6335" cy="64.6335" r="4.12556" transform="rotate(90 64.6335 64.6335)" fill="#2C3241"/>
<circle cx="64.6335" cy="125.142" r="4.12556" transform="rotate(90 64.6335 125.142)" fill="#2C3241"/>
<circle cx="64.6335" cy="185.65" r="4.12556" transform="rotate(90 64.6335 185.65)" fill="#2C3241"/>
<circle cx="64.6335" cy="246.158" r="4.12556" transform="rotate(90 64.6335 246.158)" fill="#2C3241"/>
<circle cx="4.12542" cy="4.12532" r="4.12556" transform="rotate(90 4.12542 4.12532)" fill="#2C3241"/>
<circle cx="4.12542" cy="64.6336" r="4.12556" transform="rotate(90 4.12542 64.6336)" fill="#2C3241"/>
<circle cx="4.12542" cy="125.142" r="4.12556" transform="rotate(90 4.12542 125.142)" fill="#2C3241"/>
<circle cx="4.12548" cy="185.65" r="4.12556" transform="rotate(90 4.12548 185.65)" fill="#2C3241"/>
<circle cx="4.12548" cy="246.158" r="4.12556" transform="rotate(90 4.12548 246.158)" fill="#2C3241"/>
</svg>
