<svg width="828" height="1560" viewBox="0 0 828 1560" fill="none" xmlns="http://www.w3.org/2000/svg">
<path d="M703.055 998.958C709.625 1011.15 718.875 1021.34 729.955 1028.59C741.036 1035.83 753.594 1039.91 766.479 1040.44C779.121 1039.78 791.403 1035.6 802.167 1028.28C812.93 1020.96 821.821 1010.75 828 998.61L772.821 851.868V827.818C774.402 827.167 775.809 826.092 776.917 824.693C778.024 823.293 778.797 821.612 779.164 819.801C779.164 813.527 773.138 804.465 761.722 807.253C750.306 810.041 751.574 820.498 730.01 807.253C726.594 803.941 722.364 801.811 717.852 801.129C713.339 800.447 708.743 801.244 704.641 803.419L695.127 808.299V788.431H697.347C700.074 754.92 699.727 716.511 697 683C713 679 714 678 714 678C733.5 665.5 731.279 664.694 731.279 664.694C730.01 661.209 701.786 664.694 693.541 664.694C693.055 661.855 691.715 659.277 689.736 657.374C689.038 656.689 688.135 656.309 687.199 656.309C686.263 656.309 685.36 656.689 684.662 657.374C680.962 653.104 676.232 650.082 671.026 648.661C675.488 644.642 680.524 641.462 685.93 639.25C694.81 635.764 684.028 627.05 666.586 633.324C649.145 639.598 645.339 641.689 639.314 649.009C633.289 656.329 562.571 645.872 531.493 655.632C496.56 660.87 461.142 660.87 426.209 655.632C417.057 651.31 407.127 649.346 397.179 649.89C387.231 650.434 377.527 653.471 368.811 658.769C363.333 660.046 357.67 660.023 352.201 658.7C346.732 657.378 341.583 654.787 337.099 651.1C337.584 647.402 337.584 643.645 337.099 639.947C337.099 639.947 368.81 621.473 366.908 605.091C365.005 588.709 363.419 577.904 366.908 577.904C369.87 577.382 372.667 576.059 375.047 574.053C377.427 572.047 379.316 569.422 380.543 566.413C381.77 563.405 382.297 560.108 382.075 556.82C381.854 553.532 380.892 550.357 379.275 547.58C368.493 525.969 369.128 522.832 357.711 524.575C355.005 511.193 348.276 499.204 338.61 490.54C328.945 481.877 316.906 477.045 304.435 476.823C304.435 476.823 294.922 456.258 267.332 476.823C257.818 486.931 263.844 505.405 259.721 508.542C255.599 511.678 242.914 527.712 244.817 539.563C243.334 541.194 241.542 542.446 239.569 543.229C237.595 544.012 235.489 544.308 233.4 544.094C225.472 544.094 235.62 569.19 233.4 576.161C231.18 583.132 230.229 596.029 237.523 597.423C244.817 598.817 254.33 597.423 256.55 603.348C260.041 616.151 262.065 629.382 262.575 642.735L211.202 630.187C185.02 617.238 160.67 600.217 138.899 579.647C114.206 548.291 91.2267 515.353 70.0835 481.006C70.0835 474.383 64.6924 461.835 70.0835 461.138C83.5561 463.954 96.8093 467.916 109.723 472.989L74.8403 421.054L236.571 31.7185L232.132 0L48.5193 405.369L0 396.655L25.3696 431.511C25.3696 431.511 7.92796 463.229 16.8073 482.748C16.8073 482.748 5.39098 485.537 5.39098 496.691C5.39098 507.844 27.5894 523.529 27.5894 523.529C27.5894 523.529 39.0057 527.015 35.5174 507.844C35.5174 507.844 47.8851 499.479 52.6419 523.529C57.3987 547.58 149.681 689.441 200.42 705.824C198.204 722.588 199.728 739.693 204.859 755.667C212.523 768.958 217.358 783.979 219.006 799.609C220.653 815.24 219.069 831.078 214.373 845.943C204.665 871.973 200.751 900.174 202.957 928.202C200.957 942.878 204.134 957.84 211.836 970.028C217.227 986.759 211.836 1001.05 232.132 1022.66C236.113 1026.11 239.142 1030.7 240.878 1035.94C242.615 1041.17 242.99 1046.83 241.963 1052.29C254.25 1084.86 269.217 1116.12 286.676 1145.7C309.509 1192.41 296.19 1180.56 318.388 1204.95C340.587 1229.35 323.779 1287.91 318.388 1309.52C315.972 1316.49 315.031 1323.97 315.635 1331.4C316.24 1338.83 318.374 1346.01 321.877 1352.39C327.902 1368.08 324.414 1395.61 268.283 1453.47C259.721 1463.58 262.258 1468.81 262.258 1468.81L112.578 1497.74L110.675 1532.6H64.0582V1549.67L0.634254 1559.43H797.557L708.446 1546.19L704.958 1529.11L660.561 1531.2L655.17 1500.18C655.17 1500.18 623.458 1500.18 591.746 1440.93C574.304 1410.25 565.425 1412.69 566.693 1400.14C567.962 1387.6 593.014 1365.29 594.6 1356.23C590.301 1331.89 582.712 1308.39 572.084 1286.52C564.156 1271.53 549.252 1241.2 544.495 1231.79C537.722 1211.7 532.316 1191.08 528.322 1170.1C516.541 1130.89 502.67 1092.49 486.779 1055.08C474.411 1026.84 436.04 889.163 382.129 855.005C378.856 835.115 378.109 814.821 379.91 794.705C393.503 810.802 408.963 824.864 425.892 836.532C433.374 846.639 438.491 858.606 440.797 871.387C445.614 882.277 453.224 891.38 462.691 897.574C472.158 903.768 483.067 906.781 494.073 906.243C511.832 906.243 533.079 899.62 525.785 876.615C524.199 873.13 541.324 873.13 538.787 865.81C524.763 817.131 496.146 775.111 457.604 746.604L454.75 726.04C481.649 722.398 508.119 715.621 533.713 705.824C570.519 702.929 606.849 694.966 641.851 682.122C652.892 680.358 664.107 680.358 675.148 682.122C672.169 716.9 672.169 751.91 675.148 786.688V807.253C671.617 807.614 668.072 806.762 665 804.813C660.878 801.328 652.95 798.888 638.68 804.813C624.409 810.739 616.481 815.27 606.968 810.39C597.454 805.51 586.672 813.876 590.794 821.544C593.721 832.868 594.477 844.737 593.014 856.399L543.226 995.821C549.487 1007.93 558.326 1018.19 568.987 1025.71C579.647 1033.24 591.809 1037.82 604.431 1039.04C617.309 1038.14 629.799 1033.83 640.84 1026.49C651.881 1019.15 661.148 1008.98 667.855 996.867L611.09 857.445C611.09 857.445 608.236 826.772 611.09 826.075C613.944 825.378 639.631 826.075 642.802 819.452C646.751 816.575 651.383 815.04 656.121 815.04C660.859 815.04 665.492 816.575 669.44 819.452C676.1 825.378 678.002 825.029 678.002 825.029C680.198 826.839 682.869 827.818 685.613 827.818C688.358 827.818 691.029 826.839 693.224 825.029L704.006 817.71C706.621 816.295 709.496 815.559 712.41 815.559C715.324 815.559 718.199 816.295 720.814 817.71C732.133 822.238 743.99 824.938 756.014 825.726V850.822L703.055 998.958ZM661.829 993.381H550.52L603.162 851.519L661.829 993.381ZM683.076 768.215C679.602 742.493 678.539 716.447 679.905 690.487C701.152 668.18 695.444 783.551 683.076 768.215ZM764.259 851.519L821.341 993.381H709.714L764.259 851.519Z" fill="#2C3241"/>
</svg>
