<svg width="210" height="54" viewBox="0 0 210 54" fill="none" xmlns="http://www.w3.org/2000/svg">
<g clip-path="url(#clip0)">
<path d="M49.55 1.00006L-0.23999 -0.189941L0.660009 53.1701L50.31 54.1701L49.55 1.00006ZM47.12 51.5101H2.19001L3.34001 3.13006L48 2.49006L47.12 51.5101Z" fill="#FFA000"/>
<path d="M34.51 33.0901C34.7172 33.4399 35.0088 33.7321 35.3582 33.9401C35.7077 34.148 36.1037 34.2649 36.51 34.2801C36.9086 34.2612 37.2959 34.1412 37.6353 33.9312C37.9748 33.7213 38.2551 33.4284 38.45 33.0801L36.71 28.8701V28.1801C36.7598 28.1614 36.8042 28.1306 36.8391 28.0904C36.874 28.0502 36.8984 28.002 36.91 27.9501C36.91 27.7701 36.72 27.5101 36.36 27.5901C36 27.6701 36.04 27.9701 35.36 27.5901C35.2522 27.495 35.1189 27.4339 34.9766 27.4144C34.8343 27.3948 34.6893 27.4176 34.56 27.4801L34.26 27.6201V27.0501H34.33C34.416 26.0886 34.416 25.1215 34.33 24.1601C34.4494 24.1995 34.5742 24.2197 34.7 24.2201C35.28 24.2201 35.88 24.0001 35.35 23.9101L34.91 23.8101C34.91 23.8101 35.44 23.6001 35.4 23.5001C35.36 23.4001 34.47 23.5001 34.21 23.5001C34.1946 23.4186 34.1524 23.3446 34.09 23.2901C34.068 23.2704 34.0395 23.2595 34.01 23.2595C33.9804 23.2595 33.952 23.2704 33.93 23.2901C33.8133 23.1675 33.6641 23.0808 33.5 23.0401C33.6407 22.9248 33.7995 22.8335 33.97 22.7701C34.25 22.6701 33.91 22.4201 33.36 22.6001C32.81 22.7801 32.69 22.8401 32.5 23.0501C32.31 23.2601 30.08 22.9601 29.1 23.2401C27.9984 23.3903 26.8815 23.3903 25.78 23.2401C25.4914 23.1161 25.1782 23.0597 24.8645 23.0753C24.5508 23.0909 24.2448 23.1781 23.97 23.3301C23.7972 23.3667 23.6187 23.366 23.4462 23.3281C23.2737 23.2901 23.1114 23.2158 22.97 23.1101C22.9853 23.0039 22.9853 22.8962 22.97 22.7901C22.97 22.7901 23.97 22.2601 23.91 21.7901C23.85 21.3201 23.8 21.0101 23.91 21.0101C24.0034 20.9951 24.0916 20.9571 24.1666 20.8996C24.2417 20.842 24.3013 20.7667 24.3399 20.6804C24.3786 20.5941 24.3952 20.4995 24.3883 20.4052C24.3813 20.3108 24.3509 20.2197 24.3 20.1401C23.96 19.5201 23.98 19.4301 23.62 19.4801C23.5346 19.0961 23.3224 18.7522 23.0176 18.5036C22.7128 18.255 22.3332 18.1164 21.94 18.1101C21.94 18.1101 21.64 17.5201 20.77 18.1101C20.47 18.4001 20.66 18.9301 20.53 19.0201C20.4 19.1101 20 19.5701 20.06 19.9101C20.0132 19.9569 19.9567 19.9928 19.8945 20.0152C19.8323 20.0377 19.7658 20.0462 19.7 20.0401C19.45 20.0401 19.77 20.7601 19.7 20.9601C19.63 21.1601 19.6 21.5301 19.83 21.5701C20.06 21.6101 20.36 21.5701 20.43 21.7401C20.54 22.1074 20.6039 22.4869 20.62 22.8701L19 22.5101C18.1744 22.1385 17.4065 21.6502 16.72 21.0601C15.9413 20.1605 15.2167 19.2155 14.55 18.2301C14.55 18.0401 14.38 17.6801 14.55 17.6601C14.9748 17.7408 15.3927 17.8545 15.8 18.0001L14.7 16.5101L19.8 5.34005L19.66 4.43005L13.87 16.0601L12.34 15.8101L13.14 16.8101C13.14 16.8101 12.59 17.7201 12.87 18.2801C12.87 18.2801 12.51 18.3601 12.51 18.6801C12.51 19.0001 13.21 19.4501 13.21 19.4501C13.21 19.4501 13.57 19.5501 13.46 19.0001C13.46 19.0001 13.85 18.7601 14 19.4501C14.15 20.1401 17.06 24.2101 18.66 24.6801C18.5901 25.161 18.6382 25.6518 18.8 26.1101C19.0416 26.4914 19.1941 26.9223 19.246 27.3708C19.298 27.8192 19.2481 28.2736 19.1 28.7001C18.7938 29.4469 18.6704 30.2559 18.74 31.0601C18.6769 31.4811 18.7771 31.9104 19.02 32.2601C19.19 32.7401 19.02 33.1501 19.66 33.7701C19.7855 33.8689 19.881 34.0009 19.9358 34.151C19.9905 34.3011 20.0024 34.4636 19.97 34.6201C20.3574 35.5544 20.8294 36.4515 21.38 37.3001C22.1 38.6401 21.68 38.3001 22.38 39.0001C23.08 39.7001 22.55 41.3801 22.38 42.0001C22.3038 42.2 22.2741 42.4146 22.2931 42.6277C22.3122 42.8408 22.3795 43.0468 22.49 43.2301C22.68 43.6801 22.57 44.4701 20.8 46.1301C20.53 46.4201 20.61 46.5701 20.61 46.5701L15.89 47.4001L15.83 48.4001H14.36V48.8901L12.36 49.1701H37.49L34.68 48.7901L34.57 48.3001L33.17 48.3601L33 47.4701C33 47.4701 32 47.4701 31 45.7701C30.45 44.89 30.17 44.9601 30.21 44.6001C30.25 44.2401 31.04 43.6 31.09 43.34C30.9544 42.6417 30.7151 41.9676 30.38 41.34C30.13 40.91 29.66 40.0401 29.51 39.7701C29.2964 39.1935 29.1259 38.6019 29 38.0001C28.6285 36.8753 28.1911 35.7734 27.69 34.7001C27.3 33.8901 26.09 29.9401 24.39 28.9601C24.2867 28.3894 24.2632 27.8072 24.32 27.2301C24.7486 27.6919 25.2361 28.0953 25.77 28.4301C26.0059 28.72 26.1673 29.0634 26.24 29.4301C26.3919 29.7425 26.6319 30.0037 26.9304 30.1814C27.2289 30.359 27.5729 30.4455 27.92 30.4301C28.48 30.4301 29.15 30.2401 28.92 29.5801C28.87 29.4801 29.41 29.4801 29.33 29.2701C28.8877 27.8735 27.9853 26.6679 26.77 25.8501L26.68 25.2601C27.5282 25.1556 28.3629 24.9611 29.17 24.6801C30.3306 24.597 31.4762 24.3686 32.58 24.0001C32.9281 23.9494 33.2818 23.9494 33.63 24.0001C33.536 24.9978 33.536 26.0023 33.63 27.0001V27.5901C33.5186 27.6004 33.4068 27.576 33.31 27.5201C33.18 27.4201 32.93 27.3501 32.48 27.5201C32.03 27.6901 31.78 27.8201 31.48 27.6801C31.18 27.5401 30.84 27.7801 30.97 28.0001C31.0623 28.3249 31.0861 28.6655 31.04 29.0001L29.47 33.0001C29.6674 33.3474 29.9461 33.6417 30.2823 33.8577C30.6184 34.0737 31.002 34.2049 31.4 34.2401C31.8061 34.2141 32.1999 34.0905 32.5481 33.8799C32.8963 33.6692 33.1885 33.3777 33.4 33.0301L31.61 29.0301C31.61 29.0301 31.52 28.1501 31.61 28.1301C31.7 28.1101 32.51 28.1301 32.61 27.9401C32.7345 27.8575 32.8806 27.8135 33.03 27.8135C33.1794 27.8135 33.3255 27.8575 33.45 27.9401C33.66 28.1101 33.72 28.1001 33.72 28.1001C33.7892 28.152 33.8734 28.1801 33.96 28.1801C34.0465 28.1801 34.1307 28.152 34.2 28.1001L34.54 27.8901C34.6224 27.8495 34.7131 27.8284 34.805 27.8284C34.8969 27.8284 34.9875 27.8495 35.07 27.8901C35.4269 28.02 35.8008 28.0974 36.18 28.1201V28.8401L34.51 33.0901ZM33.21 32.9301H29.7L31.36 28.8601L33.21 32.9301ZM33.88 26.4701C33.7704 25.7321 33.7369 24.9849 33.78 24.2401C34.45 23.6001 34.27 26.9101 33.88 26.4701ZM36.44 28.8601L38.24 32.9301H34.72L36.44 28.8601Z" fill="#FFA000"/>
<path d="M61.26 34.2601V33.3801C61.4715 33.3879 61.6783 33.3166 61.84 33.1801C61.9914 33.0231 62.1133 32.8402 62.2 32.6401C62.3 32.4201 62.39 32.1801 62.49 31.9201L65 25.0801H65.9L68.62 32.0801C68.68 32.2101 68.74 32.4001 68.83 32.6601C68.9119 32.882 68.9624 33.1142 68.98 33.3501H69.4H69.73V34.3501H66.26V33.5101C66.3492 33.5204 66.4395 33.5124 66.5255 33.4866C66.6114 33.4608 66.6912 33.4178 66.76 33.3601C66.8066 33.3053 66.8413 33.2415 66.8619 33.1727C66.8826 33.1038 66.8887 33.0314 66.88 32.9601C66.8612 32.7611 66.814 32.5658 66.74 32.3801L66.48 31.6801H63.7L63.5 32.2801L63.31 32.7701C63.23 32.9901 63.16 33.1701 63.09 33.3201C63.2531 33.3086 63.4169 33.3086 63.58 33.3201H64V34.3201L61.26 34.2601ZM64 30.6801H66.14L65.55 29.0801C65.44 28.7701 65.34 28.4701 65.26 28.1501C65.1806 27.8807 65.1172 27.6069 65.07 27.3301C65.07 27.4701 64.99 27.6901 64.92 27.9801C64.85 28.2701 64.74 28.6201 64.6 28.9801L64 30.6801Z" fill="#FFA000"/>
<path d="M72.06 34.26V33.42C72.2265 33.4189 72.3918 33.3919 72.55 33.34C72.6192 33.3162 72.6825 33.2781 72.7359 33.2281C72.7894 33.1781 72.8316 33.1175 72.86 33.05C72.9459 32.8132 72.9833 32.5616 72.97 32.31V27.41C72.97 27.17 72.97 26.95 72.97 26.74C72.97 26.53 72.97 26.36 72.97 26.25H72.46H72.01V25.25H73.83H75.64C76.3165 25.2249 76.9924 25.3128 77.64 25.51C78.1768 25.6489 78.645 25.9779 78.9576 26.4358C79.2702 26.8937 79.4061 27.4495 79.34 28C79.3332 28.3492 79.2441 28.6918 79.08 29C78.9021 29.3366 78.6489 29.6275 78.34 29.85C77.9639 30.1231 77.5399 30.3232 77.09 30.44C77.2676 30.5219 77.4299 30.6335 77.57 30.77C77.7202 30.9188 77.8543 31.0831 77.97 31.26L78.58 32.16C78.728 32.4006 78.8917 32.6311 79.07 32.85C79.1958 32.999 79.3443 33.1272 79.51 33.23C79.6643 33.3117 79.8355 33.3563 80.01 33.36V34.2H77.9C77.7201 34.0678 77.5644 33.9054 77.44 33.72C77.29 33.52 77.13 33.27 76.96 33L76 31.53L75.71 31.09C75.6341 30.9809 75.5506 30.8773 75.46 30.78H74.79V32.15C74.79 32.39 74.79 32.62 74.79 32.83C74.7992 32.9932 74.7992 33.1568 74.79 33.32H75.15H75.88V34.32L72.06 34.26ZM75.44 29.86C75.8342 29.8762 76.227 29.8044 76.59 29.65C76.8709 29.5205 77.095 29.293 77.22 29.01C77.3676 28.6698 77.4359 28.3005 77.42 27.93C77.444 27.5859 77.3785 27.2414 77.23 26.93C77.1161 26.7192 76.951 26.5404 76.75 26.41C76.5736 26.2981 76.3763 26.2233 76.17 26.19C76.0069 26.1779 75.8431 26.1779 75.68 26.19C75.5245 26.187 75.3695 26.2072 75.22 26.25C75.1539 26.2723 75.0936 26.3089 75.0435 26.3574C74.9933 26.4058 74.9546 26.4648 74.93 26.53C74.8467 26.7432 74.8092 26.9715 74.82 27.2V29.82H75.12C75.2251 29.8437 75.3323 29.8571 75.44 29.86Z" fill="#FFA000"/>
<path d="M86.17 26.1501C86.0074 26.1579 85.8463 26.1847 85.69 26.2301C85.6192 26.2532 85.5542 26.291 85.4991 26.341C85.4439 26.391 85.4 26.452 85.37 26.5201C85.283 26.7566 85.2456 27.0085 85.26 27.2601V32.1701C85.26 32.4001 85.26 32.6201 85.26 32.8301C85.2692 32.9933 85.2692 33.1569 85.26 33.3201C85.4331 33.308 85.6068 33.308 85.78 33.3201H86.22V34.3201H82.5V33.4801C82.6664 33.4789 82.8317 33.4519 82.99 33.4001C83.0601 33.3781 83.1243 33.3406 83.178 33.2904C83.2316 33.2402 83.2733 33.1785 83.3 33.1101C83.3858 32.8733 83.4232 32.6216 83.41 32.3701V27.4701C83.41 27.2301 83.41 27.0101 83.41 26.8001C83.41 26.5901 83.41 26.4201 83.41 26.3101H82.9H82.45V25.3101H86.12L86.17 26.1501Z" fill="#FFA000"/>
<path d="M96.8401 34.4701C96.4724 34.4678 96.1064 34.4208 95.7501 34.3301C95.3972 34.2372 95.0602 34.0923 94.7501 33.9001C94.4632 33.7102 94.2238 33.457 94.0501 33.1601C93.8707 32.8325 93.781 32.4634 93.7901 32.0901C93.7853 31.5303 93.9884 30.9887 94.3601 30.5701C94.7416 30.1224 95.23 29.7784 95.7801 29.5701C95.5205 29.2964 95.2924 28.9945 95.1001 28.6701C94.9622 28.4309 94.8642 28.1708 94.8101 27.9001C94.7625 27.6664 94.7391 27.4285 94.7401 27.1901C94.7334 26.9001 94.7899 26.6123 94.9056 26.3463C95.0213 26.0804 95.1934 25.8428 95.4101 25.6501C95.9118 25.2525 96.5406 25.05 97.1801 25.0801C97.5905 25.0743 97.996 25.1705 98.3601 25.3601C98.6759 25.5366 98.9411 25.7915 99.1301 26.1001C99.3144 26.4009 99.4114 26.7472 99.4101 27.1001C99.4124 27.4517 99.319 27.7974 99.1401 28.1001C98.9658 28.4216 98.7355 28.7095 98.4601 28.9501C98.182 29.1986 97.8806 29.4196 97.5601 29.6101C97.6873 29.7261 97.8075 29.8497 97.9201 29.9801C98.1301 30.1901 98.3801 30.4501 98.6901 30.7401C99.0001 31.0301 99.3101 31.3401 99.6901 31.6401C99.6956 31.5368 99.6956 31.4333 99.6901 31.3301C99.6901 31.2201 99.6901 31.1101 99.6901 31.0001C99.6964 30.8102 99.6694 30.6206 99.6101 30.4401C99.5746 30.3172 99.4966 30.2109 99.3901 30.1401C99.2769 30.0557 99.1411 30.0069 99.0001 30.0001V29.1801H101.15V30.1801H100.45C100.492 30.2941 100.525 30.4111 100.55 30.5301C100.566 30.673 100.566 30.8171 100.55 30.9601C100.553 31.2019 100.529 31.4433 100.48 31.6801C100.44 31.904 100.383 32.1246 100.31 32.3401L100.4 32.4301L100.5 32.5101C100.788 32.7596 101.092 32.9901 101.41 33.2001C101.601 33.3498 101.829 33.4433 102.07 33.4701V34.3101H100.7C100.539 34.2764 100.386 34.2119 100.25 34.1201C99.9699 33.9609 99.7024 33.7804 99.4501 33.5801C99.1038 33.8825 98.7034 34.1166 98.2701 34.2701C97.8084 34.4184 97.3247 34.4861 96.8401 34.4701ZM97.2501 33.5601C97.5544 33.5659 97.8568 33.5115 98.1401 33.4001C98.4022 33.2992 98.6431 33.15 98.8501 32.9601L98.5301 32.6701L98.2101 32.3801C97.7201 31.9301 97.3201 31.5501 97.0201 31.2401C96.7201 30.9301 96.4301 30.6201 96.1701 30.3201C96.0092 30.4416 95.879 30.5991 95.7901 30.7801C95.7004 30.9497 95.6363 31.1317 95.6001 31.3201C95.563 31.4673 95.5429 31.6183 95.5401 31.7701C95.5293 32.1143 95.5977 32.4564 95.7401 32.7701C95.8715 33.0277 96.077 33.2401 96.3301 33.3801C96.6181 33.5121 96.9335 33.5738 97.2501 33.5601ZM97.0001 28.9301C97.3154 28.684 97.5659 28.3648 97.7301 28.0001C97.8788 27.6871 97.9605 27.3465 97.9701 27.0001C97.9832 26.7293 97.9058 26.4619 97.7501 26.2401C97.6771 26.146 97.5829 26.0706 97.4751 26.0202C97.3673 25.9698 97.249 25.9457 97.1301 25.9501C97.0131 25.9496 96.8976 25.9754 96.792 26.0256C96.6865 26.0758 96.5935 26.1491 96.5201 26.2401C96.3359 26.4873 96.2471 26.7926 96.2701 27.1001C96.2816 27.4076 96.3529 27.7098 96.4801 27.9901C96.6044 28.3281 96.7798 28.6451 97.0001 28.9301Z" fill="#FFA000"/>
<path d="M116 28.1701C115.938 27.5751 115.69 27.015 115.29 26.5701C115.098 26.3877 114.872 26.2452 114.625 26.1508C114.378 26.0564 114.115 26.012 113.85 26.0201C113.442 26.0144 113.041 26.1217 112.69 26.3301C112.355 26.537 112.071 26.8174 111.86 27.1501C111.634 27.5061 111.472 27.8986 111.38 28.3101C111.271 28.7518 111.218 29.2052 111.22 29.6601C111.201 30.34 111.307 31.0177 111.53 31.6601C111.705 32.1818 112.02 32.6453 112.44 33.0001C112.856 33.325 113.372 33.4947 113.9 33.4801C114.458 33.4734 115.007 33.3328 115.5 33.0701C116.026 32.7901 116.481 32.3933 116.83 31.9101L117.45 32.4701C117.095 32.9819 116.647 33.4228 116.13 33.7701C115.717 34.0416 115.26 34.2411 114.78 34.3601C114.395 34.4615 113.998 34.5152 113.6 34.5201C112.982 34.5268 112.37 34.4077 111.8 34.1701C111.277 33.9334 110.808 33.5932 110.42 33.1701C110.029 32.7498 109.723 32.2573 109.52 31.7201C109.308 31.1474 109.203 30.5407 109.21 29.9301C109.209 29.3454 109.304 28.7645 109.49 28.2101C109.677 27.6452 109.961 27.1173 110.33 26.6501C110.708 26.1807 111.187 25.8016 111.73 25.5401C112.354 25.2422 113.039 25.0981 113.73 25.1201C114.098 25.1292 114.464 25.1829 114.82 25.2801C115.213 25.3846 115.59 25.5428 115.94 25.7501V25.2101H116.94V28.2101L116 28.1701Z" fill="#FFA000"/>
<path d="M124.14 34.4701C123.428 34.4886 122.721 34.3486 122.07 34.0601C121.534 33.8195 121.061 33.4564 120.69 33.0001C120.345 32.5448 120.087 32.0294 119.93 31.4801C119.765 30.9422 119.681 30.3827 119.68 29.8201C119.681 29.2616 119.776 28.7073 119.96 28.1801C120.143 27.6304 120.424 27.1187 120.79 26.6701C121.173 26.2027 121.65 25.8211 122.19 25.5501C122.814 25.2543 123.5 25.1104 124.19 25.1301C124.88 25.113 125.565 25.2568 126.19 25.5501C126.731 25.8159 127.205 26.1985 127.58 26.6701C127.927 27.1289 128.194 27.6427 128.37 28.1901C128.737 29.239 128.737 30.3812 128.37 31.4301C128.186 31.9788 127.904 32.4902 127.54 32.9401C127.16 33.4132 126.683 33.7987 126.14 34.0701C125.515 34.3626 124.829 34.4999 124.14 34.4701ZM124.28 33.5301C124.675 33.5468 125.065 33.4344 125.39 33.2101C125.694 32.9874 125.94 32.6962 126.11 32.3601C126.292 31.9971 126.42 31.6097 126.49 31.2101C126.569 30.8116 126.609 30.4063 126.61 30.0001C126.611 29.4594 126.558 28.92 126.45 28.3901C126.364 27.947 126.205 27.5212 125.98 27.1301C125.782 26.794 125.504 26.5123 125.17 26.3101C124.817 26.0989 124.411 25.9914 124 26.0001C123.605 25.9936 123.219 26.1165 122.9 26.3501C122.593 26.5778 122.346 26.8763 122.18 27.2201C121.995 27.585 121.867 27.9762 121.8 28.3801C121.722 28.7786 121.681 29.1838 121.68 29.5901C121.685 30.0203 121.732 30.449 121.82 30.8701C121.906 31.314 122.05 31.7444 122.25 32.1501C122.424 32.5454 122.696 32.8896 123.04 33.1501C123.4 33.411 123.836 33.5447 124.28 33.5301Z" fill="#FFA000"/>
<path d="M136.41 34.26V33.42C136.576 33.4179 136.742 33.3909 136.9 33.34C136.969 33.3162 137.033 33.278 137.086 33.2281C137.139 33.1781 137.182 33.1174 137.21 33.05C137.296 32.8132 137.333 32.5615 137.32 32.31V27.41C137.32 27.17 137.32 26.95 137.32 26.74C137.32 26.53 137.32 26.36 137.32 26.25H136.8H136.36V25.25H140.03V26.09C139.864 26.0979 139.7 26.1248 139.54 26.17C139.471 26.1938 139.407 26.232 139.354 26.2819C139.301 26.3319 139.258 26.3926 139.23 26.46C139.143 26.6965 139.106 26.9484 139.12 27.2V32.11C139.12 32.34 139.12 32.55 139.12 32.76C139.129 32.9165 139.129 33.0735 139.12 33.23H140.83C141.056 33.2375 141.28 33.1938 141.486 33.1019C141.692 33.0101 141.875 32.8727 142.02 32.7C142.338 32.241 142.49 31.687 142.45 31.13H143.3L143.23 34.2L136.41 34.26Z" fill="#FFA000"/>
<path d="M145.38 34.2601V33.3801C145.589 33.3894 145.793 33.3177 145.95 33.1801C146.108 33.0262 146.234 32.8427 146.32 32.6401C146.42 32.4201 146.51 32.1801 146.6 31.9201L149.1 25.0801H150L152.72 32.0801C152.77 32.2101 152.84 32.4001 152.93 32.6601C153.002 32.8846 153.053 33.1157 153.08 33.3501H153.49H153.82V34.3501H150.38V33.5101C150.468 33.5202 150.556 33.5121 150.641 33.4863C150.725 33.4604 150.803 33.4175 150.87 33.3601C150.917 33.3053 150.951 33.2415 150.972 33.1727C150.993 33.1038 150.999 33.0314 150.99 32.9601C150.976 32.7603 150.929 32.5643 150.85 32.3801L150.6 31.6801H147.82L147.62 32.2801C147.57 32.3901 147.51 32.5601 147.43 32.7701C147.35 32.9801 147.27 33.1701 147.21 33.3201C147.373 33.3082 147.537 33.3082 147.7 33.3201H148.12V34.3201L145.38 34.2601ZM148.14 30.6801H150.28L149.69 29.0801C149.58 28.7701 149.48 28.4701 149.39 28.1501C149.3 27.8301 149.24 27.5701 149.2 27.3301C149.2 27.4701 149.11 27.6901 149.05 27.9801C148.99 28.2701 148.87 28.6201 148.73 28.9801L148.14 30.6801Z" fill="#FFA000"/>
<path d="M158.13 34.3401L155.86 27.4401C155.78 27.2208 155.714 26.9971 155.66 26.7701C155.617 26.6001 155.593 26.4256 155.59 26.2501H155.16H154.81V25.2501H158.58V26.0901C158.332 26.0607 158.083 26.1249 157.88 26.2701C157.73 26.4001 157.72 26.6601 157.88 27.0501L158.26 28.5101L158.6 30.0001C158.67 30.2901 158.74 30.5601 158.81 30.8201C158.88 31.0801 158.94 31.4101 159.02 31.8201C159.02 31.7001 159.11 31.5101 159.17 31.2701L159.4 30.4701C159.48 30.1801 159.55 29.9201 159.62 29.6901C159.69 29.4601 159.72 29.2901 159.75 29.1901C159.89 28.7601 160.02 28.3201 160.15 27.8901C160.28 27.4601 160.42 27.0201 160.55 26.5801L160.94 25.2801H162.09C162.21 25.6701 162.33 26.0601 162.46 26.4501L162.82 27.6301C162.94 28.0201 163.06 28.4201 163.19 28.8101L163.55 29.9901C163.64 30.2801 163.73 30.5801 163.8 30.8901L164.01 31.8301C164.09 31.5601 164.17 31.2701 164.25 30.9801C164.33 30.6901 164.41 30.3801 164.5 30.0601L164.68 29.4001L164.86 28.7301L165.04 28.0501L165.22 27.3901C165.274 27.1731 165.341 26.9594 165.42 26.7501C165.496 26.5564 165.604 26.3772 165.74 26.2201H165.22H164.75V25.2201H167.63V26.0601C167.445 26.071 167.264 26.1222 167.1 26.2101C166.919 26.3176 166.766 26.4646 166.65 26.6401C166.488 26.8834 166.363 27.1497 166.28 27.4301C165.94 28.5701 165.59 29.7001 165.28 30.8301L164.28 34.2501H163.14L161.63 29.6701C161.522 29.3419 161.432 29.008 161.36 28.6701C161.29 28.3501 161.22 28.0501 161.15 27.7601C161.1 28.0501 161.05 28.3301 160.99 28.5901C160.93 28.8501 160.86 29.1401 160.78 29.4301L159.32 34.2301L158.13 34.3401Z" fill="#FFA000"/>
<path d="M171.9 34.2601V33.4201C172.066 33.4189 172.232 33.3919 172.39 33.3401C172.46 33.3181 172.524 33.2806 172.578 33.2304C172.632 33.1802 172.673 33.1185 172.7 33.0501C172.786 32.8132 172.823 32.5616 172.81 32.3101V31.1901L170.45 27.4701C170.34 27.2701 170.23 27.0601 170.12 26.8201C170.035 26.641 169.984 26.4477 169.97 26.2501H169.62H169.34V25.2501H173.12V26.0901C172.91 26.071 172.698 26.0983 172.5 26.1701C172.428 26.1965 172.364 26.2406 172.313 26.2982C172.262 26.3558 172.227 26.4252 172.21 26.5001C172.189 26.7051 172.242 26.9109 172.36 27.0801L173.36 28.6801L173.56 29.0001L173.82 29.4801C173.898 29.6215 173.964 29.7686 174.02 29.9201C174.02 29.8201 174.14 29.6601 174.24 29.4601C174.34 29.2601 174.47 28.9901 174.62 28.6601L175.29 27.3601C175.29 27.2701 175.39 27.1401 175.47 26.9901C175.546 26.8392 175.629 26.6923 175.72 26.5501C175.795 26.4213 175.879 26.2977 175.97 26.1801H175.44H174.98V25.1801H177.81V26.0201C177.52 26.0575 177.25 26.1872 177.04 26.3901C176.76 26.6863 176.528 27.0235 176.35 27.3901L175.52 28.9901C175.23 29.5301 174.96 30.0601 174.68 30.5901V32.0401C174.68 32.2701 174.68 32.4901 174.68 32.7001C174.689 32.8633 174.689 33.0268 174.68 33.1901C174.866 33.1778 175.054 33.1778 175.24 33.1901H175.71V34.1901L171.9 34.2601Z" fill="#FFA000"/>
<path d="M184.49 31.1801C184.514 30.9133 184.458 30.6454 184.33 30.4101C184.22 30.2555 184.056 30.1483 183.87 30.1101C183.663 30.0635 183.452 30.0433 183.24 30.0501H182.91V32.1501C182.91 32.3801 182.91 32.5901 182.91 32.8001C182.919 32.9566 182.919 33.1136 182.91 33.2701H184.63C184.886 33.2673 185.138 33.2093 185.37 33.1001C185.622 32.9722 185.828 32.7696 185.96 32.5201C186.127 32.1819 186.206 31.807 186.19 31.4301H187L186.94 34.2401H180.18V33.4001C180.346 33.3989 180.512 33.3719 180.67 33.3201C180.74 33.2981 180.804 33.2606 180.858 33.2104C180.912 33.1602 180.953 33.0986 180.98 33.0301C181.066 32.7933 181.103 32.5416 181.09 32.2901V27.3901C181.09 27.1501 181.09 26.9301 181.09 26.7201C181.09 26.5101 181.09 26.3401 181.09 26.2301H180.58H180.13V25.2301H186.53L186.61 27.7101H185.76C185.784 27.341 185.701 26.9727 185.52 26.6501C185.38 26.4266 185.169 26.2573 184.92 26.1701C184.692 26.0909 184.451 26.0536 184.21 26.0601H183.75C183.594 26.0598 183.439 26.0835 183.29 26.1301C183.223 26.1585 183.162 26.2007 183.112 26.2542C183.062 26.3076 183.024 26.3709 183 26.4401C182.92 26.6748 182.886 26.9226 182.9 27.1701V29.1001H184.39L184.34 27.9801H185.34V31.0901L184.49 31.1801Z" fill="#FFA000"/>
<path d="M189.79 34.26V33.42C189.956 33.4189 190.122 33.3919 190.28 33.34C190.349 33.3162 190.413 33.2781 190.466 33.2281C190.519 33.1781 190.562 33.1175 190.59 33.05C190.676 32.8132 190.713 32.5616 190.7 32.31V27.41C190.7 27.17 190.7 26.95 190.7 26.74C190.7 26.53 190.7 26.36 190.7 26.25H190.19H189.74V25.25H191.56H193.37C194.046 25.2249 194.722 25.3128 195.37 25.51C195.907 25.6489 196.375 25.9779 196.688 26.4358C197 26.8937 197.136 27.4495 197.07 28C197.063 28.3492 196.974 28.6918 196.81 29C196.635 29.3387 196.381 29.6303 196.07 29.85C195.695 30.1249 195.271 30.3252 194.82 30.44C194.998 30.5219 195.16 30.6335 195.3 30.77C195.45 30.9188 195.584 31.0831 195.7 31.26L196.31 32.16C196.458 32.4006 196.622 32.6311 196.8 32.85C196.926 32.999 197.074 33.1272 197.24 33.23C197.394 33.3117 197.565 33.3563 197.74 33.36V34.2H195.63C195.45 34.0678 195.294 33.9054 195.17 33.72C195.02 33.52 194.86 33.27 194.69 33L193.75 31.47L193.46 31.03C193.384 30.9209 193.301 30.8173 193.21 30.72H192.54V32.09C192.54 32.33 192.54 32.56 192.54 32.77C192.549 32.9332 192.549 33.0968 192.54 33.26H192.9H193.63V34.26H189.79ZM193.17 29.86C193.564 29.8762 193.957 29.8044 194.32 29.65C194.622 29.5284 194.865 29.2958 195 29C195.148 28.6598 195.216 28.2905 195.2 27.92C195.224 27.5759 195.158 27.2314 195.01 26.92C194.896 26.7092 194.731 26.5304 194.53 26.4C194.354 26.2881 194.156 26.2133 193.95 26.18C193.787 26.1679 193.623 26.1679 193.46 26.18C193.305 26.177 193.149 26.1972 193 26.24C192.934 26.2623 192.874 26.2989 192.823 26.3474C192.773 26.3958 192.735 26.4548 192.71 26.52C192.627 26.7332 192.589 26.9615 192.6 27.19V29.81H192.9C192.988 29.8341 193.079 29.8508 193.17 29.86Z" fill="#FFA000"/>
<path d="M205.4 28.17C205.342 27.7582 205.207 27.3611 205 27.0001C204.816 26.697 204.558 26.4458 204.25 26.2701C203.924 26.1077 203.564 26.0287 203.2 26.0401C202.842 26.0306 202.49 26.1396 202.2 26.3501C202.073 26.4401 201.97 26.5583 201.897 26.6955C201.824 26.8326 201.784 26.9848 201.78 27.1401C201.775 27.3897 201.856 27.6336 202.01 27.8301C202.197 28.0576 202.428 28.2448 202.69 28.3801C203.069 28.5898 203.459 28.7768 203.86 28.9401C204.18 29.0601 204.51 29.2101 204.86 29.3801C205.194 29.5503 205.509 29.7547 205.8 29.9901C206.084 30.2189 206.324 30.4966 206.51 30.8101C206.692 31.144 206.781 31.5201 206.77 31.9001C206.78 32.3807 206.641 32.8526 206.37 33.2501C206.075 33.6512 205.678 33.9655 205.22 34.1601C204.322 34.5319 203.326 34.5918 202.39 34.3301C201.998 34.2237 201.621 34.0656 201.27 33.8601V34.4001H200.27V31.4001H201.11C201.201 32.0243 201.518 32.5935 202 33.0001C202.427 33.3683 202.976 33.5644 203.54 33.5501C203.816 33.5538 204.089 33.4957 204.34 33.3801C204.554 33.2812 204.74 33.1299 204.88 32.9401C205.006 32.7657 205.073 32.5553 205.07 32.3401C205.072 32.202 205.046 32.065 204.992 31.9376C204.939 31.8102 204.86 31.6953 204.76 31.6C204.527 31.394 204.264 31.2253 203.98 31.1C203.67 30.97 203.35 30.8301 203.03 30.7101C202.637 30.5467 202.254 30.3631 201.88 30.1601C201.544 29.9797 201.231 29.758 200.95 29.5001C200.674 29.2472 200.457 28.9372 200.314 28.5917C200.171 28.2463 200.104 27.8737 200.12 27.5001C200.123 27.2169 200.174 26.9363 200.27 26.67C200.383 26.3764 200.553 26.1079 200.77 25.8801C201.032 25.6141 201.35 25.4093 201.7 25.2801C202.155 25.1153 202.636 25.0373 203.12 25.0501C203.496 25.0534 203.869 25.1072 204.23 25.2101C204.606 25.2945 204.963 25.4507 205.28 25.67L205.23 25.1401H206.23V28.1401L205.4 28.17Z" fill="#FFA000"/>
<path d="M74.13 15.1401C73.7 15.1401 73.19 15.1401 72.61 15.1401H69.07C68.51 15.1401 68.01 15.1401 67.56 15.1401V14.6701H67.95C68.45 14.6701 68.57 14.4101 68.32 13.9101L66 9.55011L65.8 9.78011V14.2401C65.7916 14.2983 65.7953 14.3577 65.8108 14.4144C65.8263 14.4712 65.8532 14.5242 65.89 14.5701C66.0121 14.6266 66.1456 14.6539 66.28 14.6501H66.78V15.1201C66.33 15.1201 65.86 15.1201 65.38 15.1201H62.56C62.13 15.1201 61.7 15.1201 61.26 15.1201V14.6501H61.89C62.0243 14.6526 62.1575 14.6252 62.28 14.5701C62.3168 14.5242 62.3437 14.4712 62.3592 14.4144C62.3747 14.3577 62.3784 14.2983 62.37 14.2401V4.24011C62.37 4.07011 62.37 3.96011 62.29 3.91011C62.165 3.85175 62.0278 3.82431 61.89 3.83011H61.26V3.36011H62.44C62.9 3.36011 63.44 3.36011 63.91 3.36011C64.38 3.36011 65 3.36011 65.53 3.36011H66.93V3.83011H66.29C66.1556 3.82627 66.0221 3.85365 65.9 3.91011C65.8632 3.95603 65.8363 4.00901 65.8208 4.06577C65.8053 4.12254 65.8016 4.18187 65.81 4.24011V9.05011L69.91 4.52011C70.07 4.35011 70.1 4.19011 70.01 4.05011C69.9684 3.98389 69.911 3.92909 69.8429 3.89068C69.7748 3.85226 69.6982 3.83144 69.62 3.83011H69.1V3.36011H69.91C70.17 3.36011 70.43 3.36011 70.71 3.36011C70.99 3.36011 71.27 3.36011 71.54 3.36011H72.42V3.83011H71.95C71.7109 3.83122 71.4752 3.88589 71.26 3.99011C71.0372 4.11497 70.8376 4.27736 70.67 4.47011L68.26 7.17011L72.17 13.4901C72.31 13.7201 72.44 13.9101 72.56 14.0701C72.6551 14.2032 72.7698 14.3212 72.9 14.4201C73.0036 14.5027 73.1226 14.5639 73.25 14.6001C73.3829 14.6158 73.5171 14.6158 73.65 14.6001H74.13V15.1401Z" fill="#FCFCFC"/>
<path d="M83.36 13.7301C83.327 13.9959 83.241 14.2523 83.107 14.4842C82.973 14.7161 82.7938 14.9187 82.58 15.0801C82.1018 15.3484 81.5577 15.4766 81.01 15.4501C80.6652 15.4683 80.3213 15.3995 80.01 15.2501C79.7643 15.1155 79.555 14.9234 79.4 14.6901C79.2115 14.9135 78.9803 15.097 78.72 15.2301C78.4353 15.3759 78.1198 15.4514 77.8 15.4501C77.4303 15.4567 77.0611 15.4198 76.7 15.3401C76.3948 15.2801 76.1054 15.1575 75.85 14.9801C75.6164 14.8157 75.4273 14.5958 75.3 14.3401C75.1566 14.0268 75.0882 13.6844 75.1 13.3401C75.0656 12.9974 75.1202 12.6517 75.2586 12.3363C75.397 12.021 75.6145 11.7467 75.89 11.5401C76.6326 11.1322 77.4738 10.9384 78.32 10.9801H79.24C79.32 10.9801 79.35 10.9201 79.35 10.7901V8.79007C79.35 8.00007 79.12 7.61007 78.65 7.61007C78.4527 7.60235 78.2557 7.63292 78.07 7.70007C77.9639 7.74215 77.8683 7.80701 77.79 7.89007C77.7722 7.90773 77.758 7.92876 77.7483 7.95193C77.7387 7.9751 77.7337 7.99996 77.7337 8.02507C77.7337 8.05017 77.7387 8.07503 77.7483 8.0982C77.758 8.12137 77.7722 8.1424 77.79 8.16007C77.9431 8.31616 78.0615 8.50289 78.1373 8.70798C78.2132 8.91308 78.2447 9.1319 78.23 9.35006C78.2447 9.52167 78.2188 9.69433 78.1545 9.85412C78.0903 10.0139 77.9894 10.1564 77.86 10.2701C77.5703 10.4805 77.2177 10.5863 76.86 10.5701C76.6873 10.5704 76.5166 10.5329 76.36 10.4601C76.2112 10.3828 76.0788 10.2776 75.97 10.1501C75.859 10.023 75.771 9.87744 75.71 9.72007C75.651 9.55647 75.6206 9.38396 75.62 9.21007C75.6199 8.9021 75.7061 8.60026 75.8687 8.3387C76.0313 8.07715 76.2638 7.86632 76.54 7.73007C77.3273 7.32778 78.2072 7.14145 79.09 7.19007C79.9172 7.13522 80.7403 7.34538 81.44 7.79007C81.6962 7.96725 81.9043 8.20531 82.0457 8.48284C82.187 8.76037 82.2573 9.06868 82.25 9.38007V13.8301C82.25 14.2301 82.35 14.4301 82.56 14.4301C82.77 14.4301 82.72 14.3701 82.82 14.2301C82.9328 14.082 83.0021 13.9054 83.02 13.7201L83.36 13.7301ZM79.36 11.6201C79.36 11.4934 79.34 11.4234 79.3 11.4101C79.2274 11.395 79.1525 11.395 79.08 11.4101C78.8918 11.4021 78.7061 11.4546 78.55 11.5601C78.4057 11.6552 78.2886 11.7861 78.21 11.9401C78.1262 12.1112 78.0657 12.2929 78.03 12.4801C77.9893 12.6909 77.9692 12.9053 77.97 13.1201C77.9185 13.596 78.0201 14.0759 78.26 14.4901C78.3461 14.5938 78.4684 14.6609 78.6022 14.6776C78.7359 14.6943 78.871 14.6594 78.98 14.5801C79.1035 14.5092 79.2046 14.4051 79.2718 14.2795C79.3389 14.154 79.3695 14.0121 79.36 13.8701V11.6201Z" fill="#FCFCFC"/>
<path d="M93.0001 15.14C92.7101 15.14 92.4001 15.14 92.0701 15.14H89.5701C89.1701 15.14 88.8501 15.14 88.5701 15.14V14.79H89.0801C89.1121 14.7947 89.1448 14.7907 89.1747 14.7784C89.2046 14.766 89.2306 14.7459 89.2501 14.72C89.2633 14.6507 89.2633 14.5794 89.2501 14.51V9.57003C89.2771 9.16154 89.2296 8.75155 89.1101 8.36003C89.072 8.25664 89.0021 8.168 88.9105 8.10689C88.8188 8.04579 88.7101 8.01537 88.6001 8.02003C88.4717 8.02449 88.3499 8.0782 88.2601 8.17003C88.1265 8.28891 88.0206 8.4357 87.9501 8.60003C87.848 8.82076 87.7708 9.05219 87.7201 9.29003C87.6574 9.58247 87.6272 9.88095 87.6301 10.18V14.5C87.6063 14.5749 87.6063 14.6552 87.6301 14.73C87.6301 14.73 87.7001 14.78 87.7801 14.78H88.2801V15.13C87.9701 15.13 87.6301 15.13 87.2801 15.13H84.8701C84.5401 15.13 84.2301 15.13 83.9401 15.13V14.78H84.5401C84.5721 14.7847 84.6048 14.7807 84.6347 14.7684C84.6646 14.756 84.6906 14.7359 84.7101 14.71C84.7182 14.6403 84.7182 14.5698 84.7101 14.5V8.16003C84.7252 8.08747 84.7252 8.01258 84.7101 7.94003C84.7101 7.94003 84.6301 7.88002 84.5501 7.88002H83.9501V7.53003H85.5001H86.5001C86.7701 7.53003 86.9801 7.53003 87.1301 7.53003H87.4201H87.5501C87.5653 7.57545 87.5653 7.6246 87.5501 7.67003V8.48003C87.6377 8.31182 87.7488 8.15694 87.8801 8.02003C88.0347 7.87229 88.2098 7.74767 88.4001 7.65003C88.6056 7.53778 88.8238 7.45049 89.0501 7.39003C89.2987 7.32875 89.554 7.29852 89.8101 7.30002C90.1216 7.29532 90.432 7.33918 90.7301 7.43003C90.9948 7.51604 91.2372 7.65946 91.4401 7.85003C91.6484 8.06567 91.8056 8.32541 91.9001 8.61003C92.0176 8.98509 92.0717 9.37715 92.0601 9.77003V14.5C92.0455 14.5693 92.0455 14.6408 92.0601 14.71C92.0601 14.71 92.1301 14.78 92.2301 14.78H92.8301L93.0001 15.14Z" fill="#FCFCFC"/>
<path d="M99.21 14.4601C98.917 14.8094 98.5439 15.0827 98.1226 15.2568C97.7012 15.4309 97.2441 15.5007 96.79 15.4601C96.4895 15.4843 96.1874 15.4432 95.9043 15.3396C95.6212 15.236 95.3639 15.0725 95.15 14.8601C94.7316 14.2818 94.5395 13.5704 94.61 12.8601V8.1101C94.6197 8.04379 94.6197 7.97641 94.61 7.9101C94.5612 7.89407 94.5087 7.89407 94.46 7.9101H93.71V7.5601H94.47C94.56 7.5601 94.62 7.5601 94.63 7.5601C94.6469 7.5047 94.6469 7.44549 94.63 7.3901V5.4601L95.3 5.3201L96.2 5.1101L97 4.9301C97.131 4.89315 97.2648 4.86641 97.4 4.8501C97.46 4.8501 97.49 4.9101 97.49 5.0201V7.2901C97.49 7.3801 97.49 7.4401 97.49 7.4601C97.5551 7.48015 97.6248 7.48015 97.69 7.4601H98.8V7.8101H97.67C97.6113 7.79229 97.5486 7.79229 97.49 7.8101C97.49 7.8101 97.49 7.9001 97.49 8.0101V13.5301C97.4814 13.7864 97.5257 14.0417 97.62 14.2801C97.6544 14.3624 97.713 14.4322 97.788 14.4804C97.863 14.5287 97.9508 14.5529 98.04 14.5501C98.2189 14.5393 98.3915 14.4805 98.54 14.3801C98.6984 14.2832 98.8374 14.1577 98.95 14.0101L99.21 14.4601Z" fill="#FCFCFC"/>
<path d="M107.8 11.2801C107.819 11.9218 107.711 12.5609 107.48 13.1601C107.287 13.6569 106.99 14.1069 106.61 14.4801C106.248 14.8218 105.819 15.0841 105.35 15.2501C104.87 15.4114 104.366 15.4925 103.86 15.4901C103.337 15.4948 102.818 15.3997 102.33 15.2101C101.861 15.0328 101.437 14.7526 101.09 14.3901C100.723 14.0117 100.437 13.5626 100.25 13.0701C100.042 12.4967 99.9399 11.8901 99.95 11.2801C99.9379 10.677 100.05 10.0779 100.28 9.52012C100.484 9.04088 100.779 8.60608 101.15 8.24012C101.512 7.89669 101.941 7.63122 102.41 7.46011C103.377 7.09907 104.443 7.09907 105.41 7.46011C105.881 7.63261 106.31 7.90172 106.67 8.25012C107.033 8.61784 107.322 9.05253 107.52 9.53011C107.727 10.0894 107.823 10.6841 107.8 11.2801ZM104.67 10.1301C104.67 9.64012 104.67 9.23012 104.67 8.92012C104.652 8.65976 104.609 8.40182 104.54 8.15012C104.498 7.99226 104.411 7.84991 104.29 7.74012C104.176 7.65929 104.039 7.61722 103.9 7.62012C103.59 7.62012 103.38 7.81012 103.28 8.20012C103.159 8.82247 103.109 9.45648 103.13 10.0901V12.6901C103.13 13.1501 103.13 13.5401 103.13 13.8401C103.143 14.0911 103.187 14.3396 103.26 14.5801C103.3 14.7281 103.384 14.8605 103.5 14.9601C103.623 15.0366 103.765 15.0749 103.91 15.0701C104.045 15.0732 104.178 15.0348 104.29 14.9601C104.405 14.8555 104.489 14.7203 104.53 14.5701C104.59 14.3274 104.627 14.0797 104.64 13.8301C104.64 13.5201 104.64 13.1401 104.64 12.6901L104.67 10.1301Z" fill="#FCFCFC"/>
<path d="M115.92 9.00004C115.922 9.20026 115.891 9.39946 115.83 9.59004C115.775 9.77265 115.691 9.94497 115.58 10.1C115.476 10.245 115.343 10.3675 115.19 10.46C115.044 10.5431 114.878 10.5878 114.71 10.59C114.539 10.5929 114.37 10.5596 114.213 10.4924C114.056 10.4252 113.916 10.3255 113.8 10.2C113.681 10.0827 113.587 9.94252 113.523 9.78785C113.459 9.63318 113.428 9.46725 113.43 9.30004C113.424 9.03979 113.458 8.78016 113.53 8.53004C113.579 8.34365 113.688 8.17853 113.84 8.06004C113.852 8.04428 113.859 8.02494 113.859 8.00504C113.859 7.98514 113.852 7.96579 113.84 7.95004C113.84 7.89004 113.84 7.87004 113.75 7.87004C113.632 7.87019 113.515 7.89623 113.408 7.94633C113.301 7.99643 113.206 8.06938 113.13 8.16004C112.929 8.3797 112.77 8.63378 112.66 8.91004C112.521 9.25384 112.424 9.61307 112.37 9.98004C112.298 10.3861 112.261 10.7976 112.26 11.21V14.5C112.245 14.5693 112.245 14.6408 112.26 14.71C112.26 14.71 112.33 14.78 112.43 14.78H113.13V15.13C112.81 15.13 112.46 15.13 112.07 15.13H109.52C109.14 15.13 108.81 15.13 108.52 15.13V14.78H109.12C109.149 14.7838 109.178 14.7812 109.206 14.7726C109.233 14.764 109.259 14.7495 109.28 14.73C109.297 14.6644 109.297 14.5956 109.28 14.53V8.16004C109.295 8.08748 109.295 8.0126 109.28 7.94004C109.28 7.94004 109.2 7.88004 109.12 7.88004H108.52V7.53004H110.05H111.11C111.39 7.53004 111.6 7.53004 111.75 7.53004H112.04H112.17C112.185 7.57546 112.185 7.62462 112.17 7.67004V9.15004C112.275 8.63116 112.541 8.15864 112.93 7.80004C113.302 7.47158 113.784 7.29336 114.28 7.30004C114.497 7.29572 114.712 7.35106 114.9 7.46004C115.088 7.56007 115.252 7.70001 115.38 7.87004C115.518 8.04632 115.623 8.24623 115.69 8.46004C115.792 8.62807 115.87 8.80994 115.92 9.00004Z" fill="#FCFCFC"/>
<path d="M133.1 15.14C132.75 15.14 132.33 15.14 131.84 15.14H128.73C128.23 15.14 127.79 15.14 127.39 15.14V14.67H128.13C128.266 14.6769 128.401 14.6458 128.52 14.58C128.555 14.5409 128.583 14.4951 128.6 14.4453C128.617 14.3954 128.624 14.3426 128.62 14.29V9.41002C128.638 9.33439 128.638 9.25564 128.62 9.18002C128.561 9.16221 128.499 9.16221 128.44 9.18002H125.25C125.191 9.16221 125.129 9.16221 125.07 9.18002C125.052 9.25564 125.052 9.33439 125.07 9.41002V14.29C125.064 14.3404 125.069 14.3916 125.084 14.4399C125.1 14.4883 125.126 14.5327 125.16 14.57C125.29 14.6252 125.429 14.6525 125.57 14.65H126.3V15.12C125.86 15.12 125.38 15.12 124.88 15.12H121.88C121.43 15.12 120.98 15.12 120.53 15.12V14.65H121.17C121.3 14.6545 121.43 14.6306 121.55 14.58C121.62 14.58 121.65 14.44 121.65 14.29V4.29002C121.65 4.11002 121.65 3.99002 121.56 3.95002C121.437 3.89863 121.304 3.87474 121.17 3.88001H120.53V3.41002H121.83C122.33 3.41002 122.83 3.41002 123.29 3.41002C123.75 3.41002 124.29 3.41002 124.83 3.41002H126.26V3.88001H125.46C125.28 3.88001 125.17 3.88001 125.12 3.96001C125.05 4.05481 125.018 4.17262 125.03 4.29002V8.47001C125.011 8.5455 125.011 8.62453 125.03 8.70002C125.089 8.71782 125.151 8.71782 125.21 8.70002H128.4C128.459 8.71782 128.521 8.71782 128.58 8.70002C128.599 8.62453 128.599 8.5455 128.58 8.47001V4.27002C128.594 4.14938 128.562 4.02788 128.49 3.93002C128.383 3.87111 128.261 3.84665 128.14 3.86002H127.35V3.39001H128.71C129.2 3.39001 129.71 3.39001 130.21 3.39001C130.71 3.39001 131.21 3.39001 131.72 3.39001H133.06V3.86002H132.43C132.291 3.85062 132.152 3.88188 132.03 3.95002C131.97 4.00002 131.95 4.11002 131.95 4.27002V14.27C131.95 14.41 131.95 14.5 132.03 14.55C132.155 14.6084 132.292 14.6358 132.43 14.63H133.06L133.1 15.14Z" fill="#FCFCFC"/>
<path d="M142.92 15.14C142.6 15.14 142.25 15.14 141.92 15.14H139.92C139.7 15.14 139.54 15.14 139.44 15.14C139.34 15.14 139.27 15.14 139.26 15.14C139.242 15.0644 139.242 14.9856 139.26 14.91V14.3C139.101 14.6348 138.851 14.9187 138.54 15.12C138.154 15.372 137.7 15.4978 137.24 15.48C136.9 15.4866 136.561 15.4324 136.24 15.32C135.945 15.2183 135.676 15.0547 135.45 14.84C135.224 14.6227 135.047 14.3604 134.93 14.07C134.8 13.7529 134.735 13.4128 134.74 13.07V8.16002C134.755 8.08746 134.755 8.01258 134.74 7.94002C134.74 7.94002 134.67 7.88002 134.58 7.88002H133.97V7.53002C135.08 7.53002 135.97 7.53002 136.5 7.48002C137.03 7.43002 137.41 7.43002 137.5 7.43002C137.546 7.42111 137.594 7.42111 137.64 7.43002C137.655 7.47544 137.655 7.5246 137.64 7.57002V12.91C137.603 13.3735 137.661 13.8395 137.81 14.28C137.92 14.5 138.06 14.62 138.23 14.62C138.314 14.6162 138.396 14.5925 138.469 14.5507C138.542 14.509 138.604 14.4505 138.65 14.38C138.787 14.2001 138.899 14.0014 138.98 13.79C139.062 13.5613 139.129 13.3274 139.18 13.09C139.226 12.883 139.253 12.6721 139.26 12.46V8.19002C139.283 8.10822 139.283 8.02183 139.26 7.94002C139.241 7.91903 139.218 7.90267 139.192 7.89225C139.166 7.88183 139.138 7.87764 139.11 7.88002H138.5V7.53002C139.61 7.53002 140.5 7.53002 141.05 7.48002C141.6 7.43002 141.96 7.43002 142.05 7.43002C142.1 7.42144 142.15 7.42144 142.2 7.43002C142.215 7.47544 142.215 7.5246 142.2 7.57002V14.5C142.185 14.5693 142.185 14.6408 142.2 14.71C142.2 14.71 142.27 14.78 142.36 14.78H142.97L142.92 15.14Z" fill="#FCFCFC"/>
<path d="M152.88 15.1401H148.28V14.7901H148.53C148.571 14.787 148.61 14.7756 148.646 14.7567C148.682 14.7378 148.714 14.7117 148.74 14.6801C148.761 14.6436 148.772 14.6022 148.772 14.5601C148.772 14.5179 148.761 14.4766 148.74 14.4401L147.58 11.6701L147.45 11.7901V14.5001C147.435 14.5693 147.435 14.6408 147.45 14.7101C147.45 14.7101 147.52 14.7801 147.61 14.7801H148V15.1301C147.66 15.1301 147.33 15.1301 147 15.1301H143.77V14.7801H144.37C144.46 14.7801 144.52 14.7801 144.53 14.7101C144.545 14.6408 144.545 14.5693 144.53 14.5001V4.00007C144.543 3.92734 144.543 3.8528 144.53 3.78007C144.53 3.78007 144.46 3.72007 144.37 3.72007H143.77V3.37007H144.67L145.79 3.32007H146.79H147.3C147.41 3.32007 147.46 3.38007 147.46 3.50007V11.1801L149.86 8.36007C149.96 8.23007 149.99 8.13007 149.96 8.05007C149.953 8.01655 149.934 7.98683 149.906 7.96656C149.878 7.94628 149.844 7.93686 149.81 7.94007H149.26V7.59007H149.54H151.22H151.53V7.94007H151.05C150.943 7.95413 150.841 7.9917 150.75 8.05007C150.653 8.10972 150.565 8.18391 150.49 8.27007L149.49 9.40007L151.74 14.1001C151.823 14.2894 151.934 14.4648 152.07 14.6201C152.183 14.7333 152.331 14.804 152.49 14.8201H152.88V15.1401Z" fill="#FCFCFC"/>
<path d="M162.31 15.1401C161.99 15.1401 161.65 15.1401 161.31 15.1401H159.31C159.09 15.1401 158.93 15.1401 158.83 15.1401C158.771 15.1579 158.709 15.1579 158.65 15.1401C158.632 15.0645 158.632 14.9857 158.65 14.9101V14.3001C158.496 14.6354 158.25 14.9198 157.94 15.1201C157.55 15.371 157.093 15.4967 156.63 15.4801C156.29 15.4867 155.951 15.4325 155.63 15.3201C155.339 15.2161 155.074 15.0526 154.85 14.8401C154.621 14.6255 154.444 14.3624 154.33 14.0701C154.196 13.7537 154.128 13.4135 154.13 13.0701V8.16011C154.145 8.08755 154.145 8.01267 154.13 7.94011C154.13 7.94011 154.06 7.88011 153.97 7.88011H153.36V7.53011C154.47 7.53011 155.36 7.53011 155.9 7.48011C156.44 7.43011 156.8 7.43011 156.9 7.43011C156.943 7.42092 156.987 7.42092 157.03 7.43011C157.045 7.47553 157.045 7.52469 157.03 7.57011V12.9101C156.999 13.3734 157.056 13.8385 157.2 14.2801C157.32 14.5001 157.46 14.6201 157.62 14.6201C157.705 14.6163 157.789 14.5926 157.863 14.5509C157.938 14.5093 158.002 14.4508 158.05 14.3801C158.184 14.1997 158.292 14.001 158.37 13.7901C158.46 13.5631 158.53 13.3289 158.58 13.0901C158.624 12.8829 158.647 12.6719 158.65 12.4601V8.19011C158.673 8.1083 158.673 8.02191 158.65 7.94011C158.631 7.91911 158.608 7.90275 158.582 7.89234C158.556 7.88192 158.528 7.87773 158.5 7.88011H157.89V7.53011C159 7.53011 159.89 7.53011 160.44 7.48011L161.44 7.43011C161.486 7.4212 161.534 7.4212 161.58 7.43011C161.596 7.4754 161.596 7.52482 161.58 7.57011V14.5001C161.567 14.5695 161.567 14.6407 161.58 14.7101C161.599 14.736 161.625 14.7561 161.655 14.7684C161.685 14.7808 161.718 14.7848 161.75 14.7801H162.35L162.31 15.1401Z" fill="#FCFCFC"/>
<path d="M176.17 15.1401C175.83 15.1401 175.47 15.1401 175.08 15.1401H171.94V14.7901H172.27C172.36 14.7901 172.42 14.7901 172.44 14.7201C172.453 14.6507 172.453 14.5794 172.44 14.5101V9.38006C172.468 9.04128 172.424 8.70035 172.31 8.38006C172.282 8.29667 172.228 8.22444 172.156 8.17402C172.084 8.12361 171.998 8.09768 171.91 8.10006C171.67 8.10006 171.47 8.26006 171.3 8.59006C171.123 8.99618 171.041 9.4374 171.06 9.88006V14.5001C171.047 14.5694 171.047 14.6407 171.06 14.7101C171.06 14.7101 171.14 14.7101 171.23 14.7801H171.57V15.1301C171.27 15.1301 170.97 15.1301 170.67 15.1301H168.48C168.12 15.1301 167.82 15.1301 167.58 15.1301V14.7801H168C168.08 14.7801 168.13 14.7801 168.15 14.7301C168.191 14.6609 168.209 14.5801 168.2 14.5001V9.38006C168.213 9.04178 168.169 8.70367 168.07 8.38006C168.045 8.29806 167.995 8.22597 167.927 8.17395C167.859 8.12193 167.776 8.09259 167.69 8.09006C167.46 8.09006 167.26 8.27006 167.09 8.64006C166.906 9.09016 166.821 9.57432 166.84 10.0601V14.5001C166.827 14.5694 166.827 14.6407 166.84 14.7101C166.84 14.7101 166.92 14.7101 167.01 14.7801H167.35V15.1301C167.07 15.1301 166.75 15.1301 166.35 15.1301H164.03C163.64 15.1301 163.32 15.1301 163.03 15.1301V14.7801H163.63C163.73 14.7801 163.78 14.7801 163.8 14.7101C163.815 14.6408 163.815 14.5693 163.8 14.5001V8.16006C163.815 8.0875 163.815 8.01262 163.8 7.94006C163.8 7.94006 163.73 7.88006 163.63 7.88006H163.03V7.53006H164.56H165.62C165.9 7.53006 166.12 7.53006 166.26 7.53006H166.55C166.66 7.53006 166.72 7.58006 166.72 7.69006V8.52006C166.857 8.15494 167.119 7.85024 167.46 7.66006C167.839 7.42901 168.276 7.31105 168.72 7.32006C169.181 7.31224 169.635 7.43347 170.03 7.67006C170.41 7.90511 170.704 8.25556 170.87 8.67006C171.037 8.28635 171.316 7.96211 171.67 7.74006C172.053 7.47994 172.507 7.3438 172.97 7.35006C173.264 7.34789 173.556 7.4022 173.83 7.51006C174.101 7.61267 174.347 7.77305 174.55 7.98006C174.772 8.19405 174.946 8.4532 175.06 8.74006C175.181 9.0595 175.242 9.3985 175.24 9.74006V14.5001C175.225 14.5693 175.225 14.6408 175.24 14.7101C175.24 14.7101 175.31 14.7801 175.41 14.7801H176.03L176.17 15.1401Z" fill="#FCFCFC"/>
<path d="M61.26 49.49V49.17C61.3798 49.175 61.4972 49.1358 61.59 49.06C61.677 48.9693 61.742 48.8599 61.78 48.74C61.84 48.61 61.89 48.46 61.96 48.3L63.41 44.3H63.69L65.26 48.3C65.3099 48.421 65.3533 48.5445 65.39 48.67C65.4341 48.7989 65.4578 48.9339 65.46 49.07H65.7H65.92V49.46H64.18V49.15C64.35 49.15 64.46 49.15 64.51 49.04C64.5393 49.0041 64.5607 48.9623 64.5727 48.9175C64.5848 48.8727 64.5873 48.8259 64.58 48.78C64.5675 48.6768 64.5406 48.5758 64.5 48.48L64.29 47.9H62.53L62.32 48.53L62.23 48.8L62.13 49.05H62.4H62.67V49.45L61.26 49.49ZM62.66 47.59H64.17L63.71 46.37C63.71 46.21 63.6 46.06 63.55 45.9C63.5 45.74 63.45 45.6 63.41 45.45C63.41 45.57 63.33 45.71 63.28 45.85C63.23 45.99 63.18 46.15 63.11 46.32L62.66 47.59Z" fill="#FCFCFC"/>
<path d="M67.58 49.1801C67.7004 49.1789 67.8181 49.1443 67.92 49.0801C67.9922 49.0111 68.0382 48.9192 68.05 48.8201C68.0621 48.6737 68.0621 48.5265 68.05 48.3801V45.3801C68.05 45.2701 68.05 45.1701 68.05 45.0701C68.05 44.9701 68.05 44.8901 68.05 44.8201H67.79H67.53V44.4201H69.36C69.7666 44.4118 70.1718 44.4692 70.56 44.5901C70.8918 44.6917 71.1985 44.8621 71.46 45.0901C71.7105 45.3041 71.9059 45.575 72.03 45.8801C72.2707 46.525 72.2707 47.2351 72.03 47.8801C71.9184 48.1827 71.7447 48.4587 71.52 48.6901C71.2728 48.9338 70.9808 49.1274 70.66 49.2601C70.2708 49.4086 69.8565 49.4799 69.44 49.4701H67.58V49.1801ZM68.84 48.5401V48.8801C68.8467 48.9633 68.8467 49.0469 68.84 49.1301H69.58C69.8521 49.1372 70.1222 49.0825 70.37 48.9701C70.5963 48.8636 70.7948 48.7061 70.95 48.5101C71.1165 48.3097 71.2422 48.0787 71.32 47.8301C71.5072 47.1698 71.4685 46.4659 71.21 45.8301C71.0661 45.5153 70.824 45.2556 70.52 45.0901C70.1642 44.9084 69.7696 44.8158 69.37 44.8201C69.2512 44.8112 69.1324 44.8391 69.03 44.9001C68.9548 44.968 68.9054 45.0599 68.89 45.1601C68.8775 45.3065 68.8775 45.4537 68.89 45.6001L68.84 48.5401Z" fill="#FCFCFC"/>
<path d="M76.09 49.56L74.45 45.73C74.37 45.53 74.3 45.35 74.26 45.21C74.2185 45.0938 74.1916 44.9729 74.18 44.85H73.78V44.45H75.6V44.78C75.5203 44.7698 75.4393 44.7811 75.3655 44.8128C75.2916 44.8444 75.2276 44.8953 75.18 44.96C75.1426 45.0398 75.1231 45.1269 75.1231 45.215C75.1231 45.3032 75.1426 45.3903 75.18 45.47L75.51 46.29C75.61 46.56 75.73 46.84 75.85 47.13L76.14 47.82L76.38 48.39L76.55 47.91L76.74 47.38C76.86 47.05 76.96 46.77 77.04 46.53C77.12 46.29 77.21 46.08 77.27 45.89C77.33 45.7 77.4 45.54 77.45 45.39L77.57 45.07C77.6021 44.9831 77.6422 44.8994 77.69 44.82H77.41H77.14V44.42H78.64V44.74C78.4721 44.7443 78.3104 44.8041 78.18 44.91C78.0376 45.0684 77.9317 45.2562 77.87 45.46C77.87 45.55 77.8 45.64 77.76 45.74C77.72 45.84 77.69 45.95 77.64 46.08L77.46 46.56L77.21 47.25C77.11 47.52 77 47.83 76.86 48.25C76.72 48.67 76.56 49.06 76.38 49.56H76.09Z" fill="#FCFCFC"/>
<path d="M82.63 49.6101C82.2278 49.6203 81.8284 49.5417 81.46 49.3801C81.1584 49.2364 80.8921 49.0281 80.68 48.7701C80.4796 48.5127 80.3272 48.2214 80.23 47.9101C80.1395 47.6083 80.0924 47.2952 80.09 46.9801C80.0918 46.6708 80.1424 46.3637 80.24 46.0701C80.3467 45.7619 80.5057 45.4743 80.71 45.2201C80.9229 44.9577 81.1887 44.7431 81.49 44.5901C81.8345 44.4313 82.2106 44.3526 82.59 44.3601C82.9823 44.3517 83.3716 44.4303 83.73 44.5901C84.0346 44.7379 84.3014 44.9534 84.51 45.2201C84.8063 45.5898 85.0047 46.0283 85.0869 46.4949C85.169 46.9616 85.1323 47.4414 84.98 47.8901C84.8733 48.1983 84.7143 48.4859 84.51 48.7401C84.2997 49.0051 84.0333 49.2203 83.73 49.3701C83.3878 49.5369 83.0106 49.6192 82.63 49.6101ZM82.63 49.2301C82.882 49.2375 83.1311 49.1752 83.35 49.0501C83.5573 48.9263 83.7321 48.7549 83.86 48.5501C83.9888 48.335 84.0864 48.1027 84.15 47.8601C84.2095 47.6145 84.2397 47.3628 84.24 47.1101C84.2391 46.8134 84.2022 46.5179 84.13 46.2301C84.0644 45.9582 83.9564 45.6983 83.81 45.4601C83.6712 45.2397 83.4829 45.0547 83.26 44.9201C83.0369 44.7854 82.7805 44.7161 82.52 44.7201C82.2625 44.7158 82.0093 44.7852 81.79 44.9201C81.5879 45.0471 81.417 45.218 81.29 45.4201C81.1611 45.6352 81.0635 45.8675 81 46.1101C80.8598 46.6173 80.8598 47.1529 81 47.6601C81.064 47.9294 81.1649 48.1885 81.3 48.4301C81.4338 48.6618 81.6184 48.8601 81.84 49.0101C82.0825 49.1697 82.3701 49.2469 82.66 49.2301H82.63Z" fill="#FCFCFC"/>
<path d="M87.06 49.49V49.18C87.1804 49.1788 87.2981 49.1442 87.4 49.08C87.4761 49.014 87.5228 48.9205 87.53 48.82C87.5421 48.6736 87.5421 48.5264 87.53 48.38V45.38C87.53 45.27 87.53 45.17 87.53 45.07C87.53 44.97 87.53 44.89 87.53 44.82H87.27H87.01V44.42H88.77V44.74C88.6534 44.7355 88.5382 44.7669 88.44 44.83C88.3648 44.898 88.3153 44.9898 88.3 45.09C88.288 45.2364 88.288 45.3836 88.3 45.53V46.68H88.83L89.62 45.43C89.69 45.32 89.77 45.2 89.86 45.08C89.9343 44.9699 90.0216 44.8692 90.12 44.78H89.68V44.4H91.29V44.72C91.1309 44.7295 90.9733 44.7563 90.82 44.8C90.6611 44.8579 90.5151 44.9462 90.39 45.06C90.2181 45.2217 90.07 45.4068 89.95 45.61L89.26 46.72C89.3741 46.793 89.4782 46.8804 89.57 46.98C89.6521 47.0722 89.7289 47.1691 89.8 47.27L90.58 48.33C90.74 48.53 90.87 48.69 90.98 48.81C91.0704 48.9072 91.1791 48.9853 91.3 49.04C91.3931 49.0867 91.4959 49.1107 91.6 49.11V49.42H90.6C90.5275 49.4081 90.4609 49.373 90.41 49.32C90.3186 49.2312 90.2318 49.1378 90.15 49.04L89.88 48.71L89.07 47.59L88.82 47.27C88.7534 47.1805 88.6723 47.1028 88.58 47.04H88.25V48.81C88.2567 48.8932 88.2567 48.9768 88.25 49.06H88.52H88.77V49.45L87.06 49.49Z" fill="#FCFCFC"/>
<path d="M93 49.49V49.17C93.1198 49.175 93.2372 49.1358 93.33 49.06C93.4128 48.9662 93.4772 48.8577 93.52 48.74L93.69 48.3L95.14 44.3H95.43L97 48.3C97.0499 48.421 97.0933 48.5445 97.13 48.67C97.1716 48.7992 97.1919 48.9343 97.19 49.07H97.43H97.66V49.46H95.91V49.15C96.0334 49.1596 96.1556 49.12 96.25 49.04C96.3008 48.9635 96.3221 48.8711 96.31 48.78C96.301 48.6772 96.2774 48.5762 96.24 48.48L96.02 47.9H94.27L94.06 48.53C94.06 48.62 94 48.71 93.96 48.8C93.931 48.8851 93.8976 48.9685 93.86 49.05H94.14H94.4V49.45L93 49.49ZM94.39 47.59H95.9L95.45 46.37L95.28 45.9C95.28 45.75 95.18 45.6 95.14 45.45C95.14 45.57 95.06 45.71 95.01 45.85C94.96 45.99 94.91 46.15 94.85 46.32L94.39 47.59Z" fill="#FCFCFC"/>
<path d="M102.78 46.0001C102.778 45.7699 102.744 45.5411 102.68 45.3201C102.638 45.1545 102.539 45.0092 102.4 44.9101C102.237 44.8134 102.049 44.768 101.86 44.7801H101.34V48.8601C101.347 48.9433 101.347 49.0269 101.34 49.1101H101.64H101.93V49.5001H100.11V49.1901C100.23 49.1889 100.348 49.1543 100.45 49.0901C100.519 49.0201 100.562 48.9281 100.57 48.8301C100.582 48.6837 100.582 48.5365 100.57 48.3901V44.8101H100C99.8775 44.7997 99.7543 44.8209 99.6423 44.8717C99.5303 44.9225 99.4331 45.0011 99.3601 45.1001C99.2089 45.3785 99.1396 45.694 99.1601 46.0101H98.8201V44.4601H103.05V46.0101L102.78 46.0001Z" fill="#FCFCFC"/>
<path d="M109.72 49.6101C109.514 49.6088 109.309 49.5819 109.11 49.5301C108.915 49.4815 108.729 49.4003 108.56 49.2901C108.401 49.1793 108.27 49.0319 108.18 48.8601C108.076 48.6633 108.024 48.4428 108.03 48.2201C108.026 47.9175 108.137 47.6246 108.34 47.4001C108.558 47.1452 108.837 46.9492 109.15 46.8301C109.029 46.678 108.919 46.5176 108.82 46.3501C108.744 46.2154 108.686 46.0706 108.65 45.9201C108.611 45.7869 108.591 45.6489 108.59 45.5101C108.581 45.3499 108.611 45.1899 108.677 45.0437C108.744 44.8975 108.844 44.7694 108.97 44.6701C109.253 44.445 109.61 44.3343 109.97 44.3601C110.195 44.351 110.419 44.3992 110.62 44.5001C110.79 44.5844 110.935 44.712 111.04 44.8701C111.139 45.0293 111.191 45.2129 111.19 45.4001C111.191 45.5836 111.15 45.7648 111.07 45.9301C110.974 46.109 110.845 46.2684 110.69 46.4001C110.493 46.5584 110.282 46.6989 110.06 46.8201L110.41 47.1801L110.87 47.6501C111.03 47.8101 111.19 47.9601 111.34 48.0901C111.345 48.0169 111.345 47.9434 111.34 47.8701C111.345 47.8035 111.345 47.7367 111.34 47.6701C111.357 47.5641 111.357 47.4561 111.34 47.3501C111.315 47.2571 111.263 47.1736 111.19 47.1101C111.106 47.0472 111.005 47.0122 110.9 47.0101V46.7001H112.13V47.0801H111.61C111.667 47.1463 111.709 47.2251 111.73 47.3101C111.759 47.4111 111.776 47.5152 111.78 47.6201C111.789 47.74 111.789 47.8603 111.78 47.9801C111.759 48.1248 111.718 48.266 111.66 48.4001L111.8 48.5201L111.94 48.6501C112.109 48.8009 112.289 48.9379 112.48 49.0601C112.585 49.1406 112.709 49.1923 112.84 49.2101V49.5201H112.14C112.04 49.4994 111.944 49.4586 111.86 49.4001C111.665 49.2795 111.481 49.1423 111.31 48.9901C111.134 49.1854 110.92 49.342 110.68 49.4501C110.379 49.5846 110.048 49.6397 109.72 49.6101ZM109.85 49.2001C110.08 49.2096 110.31 49.1651 110.52 49.0701C110.692 48.9848 110.845 48.8658 110.97 48.7201L110.85 48.6001L110.71 48.4801L109.93 47.7101L109.34 47.1001C109.219 47.1804 109.116 47.2862 109.04 47.4101C108.968 47.5247 108.914 47.6494 108.88 47.7801C108.867 47.8831 108.867 47.9872 108.88 48.0901C108.868 48.3058 108.917 48.5205 109.02 48.7101C109.104 48.8652 109.233 48.9908 109.39 49.0701C109.533 49.1439 109.69 49.1881 109.85 49.2001ZM109.85 46.5801C110.069 46.4345 110.251 46.2392 110.38 46.0101C110.49 45.8257 110.549 45.615 110.55 45.4001C110.558 45.2135 110.502 45.0298 110.39 44.8801C110.335 44.8147 110.266 44.7627 110.188 44.728C110.11 44.6933 110.025 44.677 109.94 44.6801C109.857 44.6792 109.774 44.6966 109.698 44.7312C109.622 44.7657 109.554 44.8166 109.5 44.8801C109.373 45.0421 109.309 45.2446 109.32 45.4501C109.323 45.6526 109.375 45.8514 109.47 46.0301C109.562 46.2258 109.676 46.4103 109.81 46.5801H109.85Z" fill="#FCFCFC"/>
<path d="M117.65 49.49V49.18C117.77 49.1788 117.888 49.1442 117.99 49.08C118.066 49.014 118.113 48.9205 118.12 48.82C118.132 48.6736 118.132 48.5265 118.12 48.38V45.38C118.12 45.27 118.12 45.17 118.12 45.07C118.12 44.97 118.12 44.89 118.12 44.82H117.86H117.6V44.42H119.36V44.74C119.243 44.7356 119.128 44.767 119.03 44.83C118.955 44.898 118.905 44.9898 118.89 45.09C118.878 45.2365 118.878 45.3836 118.89 45.53V48.84C118.897 48.9199 118.897 49.0002 118.89 49.08H120.1C120.229 49.0876 120.359 49.0654 120.479 49.0151C120.598 48.9648 120.705 48.8878 120.79 48.79C120.963 48.5234 121.044 48.2071 121.02 47.89H121.34V49.45L117.65 49.49Z" fill="#FCFCFC"/>
<path d="M125.67 47.6801C125.681 47.5247 125.65 47.3693 125.58 47.2301C125.549 47.1857 125.509 47.1485 125.462 47.1209C125.416 47.0933 125.364 47.076 125.31 47.0701C125.164 47.0489 125.016 47.0489 124.87 47.0701H124.45V48.9001C124.45 49.0001 124.45 49.0801 124.45 49.1401H125.68C125.852 49.1409 126.022 49.1069 126.18 49.0401C126.333 48.9682 126.46 48.849 126.54 48.7001C126.63 48.4991 126.671 48.2799 126.66 48.0601H127V49.5101H123.27V49.2001C123.39 49.1989 123.508 49.1642 123.61 49.1001C123.682 49.0311 123.728 48.9392 123.74 48.8401C123.752 48.6936 123.752 48.5465 123.74 48.4001V45.4001C123.74 45.2901 123.74 45.1901 123.74 45.0901C123.74 44.9901 123.74 44.9101 123.74 44.8401H123.48H123.22V44.4401H126.72V45.7401H126.41C126.42 45.5257 126.375 45.3124 126.28 45.1201C126.202 44.9844 126.078 44.8815 125.93 44.8301C125.786 44.7796 125.632 44.7591 125.48 44.7701H125C124.886 44.7614 124.771 44.7856 124.67 44.8401C124.629 44.869 124.594 44.9061 124.569 44.9492C124.543 44.9923 124.526 45.0402 124.52 45.0901C124.501 45.2395 124.501 45.3906 124.52 45.5401V46.6701H125.7V46.0501H126.1V47.6401L125.67 47.6801Z" fill="#FCFCFC"/>
<path d="M131.35 49.61C130.903 49.6194 130.461 49.5089 130.07 49.29C129.703 49.0872 129.404 48.7812 129.21 48.41C129.003 47.9978 128.9 47.5412 128.91 47.08C128.906 46.74 128.96 46.4019 129.07 46.08C129.167 45.7634 129.323 45.4681 129.53 45.21C129.74 44.945 130.007 44.7298 130.31 44.58C130.653 44.4178 131.03 44.3389 131.41 44.35C131.573 44.336 131.737 44.336 131.9 44.35C132.073 44.3792 132.244 44.4227 132.41 44.48C132.565 44.5379 132.716 44.6081 132.86 44.69V44.36H133.3V46.01H132.97C132.959 45.7492 132.876 45.4964 132.73 45.28C132.602 45.0847 132.422 44.9289 132.21 44.83C131.988 44.7245 131.746 44.6698 131.5 44.67C131.26 44.6694 131.023 44.7278 130.81 44.84C130.599 44.9573 130.415 45.1174 130.27 45.31C130.113 45.5222 129.991 45.7587 129.91 46.01C129.829 46.2894 129.788 46.5791 129.79 46.87C129.781 47.2711 129.856 47.6697 130.01 48.04C130.138 48.362 130.353 48.6423 130.63 48.85C130.904 49.0449 131.234 49.1466 131.57 49.14H131.94C132.079 49.1173 132.216 49.0839 132.35 49.04C132.48 48.9942 132.604 48.9338 132.72 48.86V47.72C132.72 47.61 132.72 47.5 132.72 47.4H132.46H132.21V47H133.92V47.32C133.823 47.3131 133.727 47.3415 133.65 47.4C133.584 47.4485 133.532 47.5142 133.5 47.59C133.465 47.6725 133.445 47.7605 133.44 47.85C133.436 47.93 133.436 48.0101 133.44 48.09V49.21H133.26C133.139 49.2139 133.018 49.2307 132.9 49.26C132.748 49.2986 132.597 49.3453 132.45 49.4C132.284 49.4575 132.113 49.501 131.94 49.53C131.746 49.5734 131.549 49.6001 131.35 49.61Z" fill="#FCFCFC"/>
<path d="M135.33 49.49V49.17C135.45 49.175 135.567 49.1358 135.66 49.06C135.747 48.9693 135.812 48.8599 135.85 48.74C135.91 48.61 135.96 48.46 136.03 48.3L137.47 44.3H137.76L139.33 48.3C139.38 48.421 139.423 48.5445 139.46 48.67C139.504 48.7989 139.528 48.9339 139.53 49.07H139.76H140V49.46H138.26V49.15C138.43 49.15 138.54 49.15 138.59 49.04C138.619 49.0041 138.641 48.9623 138.653 48.9175C138.665 48.8727 138.667 48.8259 138.66 48.78C138.643 48.6778 138.616 48.5773 138.58 48.48L138.36 47.9H136.61L136.4 48.53L136.31 48.8L136.21 49.05H136.48H136.75V49.45L135.33 49.49ZM136.73 47.59H138.23L137.78 46.37C137.73 46.21 137.67 46.06 137.62 45.9L137.47 45.45C137.47 45.57 137.39 45.71 137.34 45.85C137.29 45.99 137.24 46.15 137.17 46.32L136.73 47.59Z" fill="#FCFCFC"/>
<path d="M141.65 49.49V49.18C141.77 49.1788 141.888 49.1442 141.99 49.08C142.062 49.0111 142.108 48.9192 142.12 48.82C142.132 48.6736 142.132 48.5265 142.12 48.38V45.38C142.12 45.27 142.12 45.17 142.12 45.07C142.12 44.97 142.12 44.89 142.12 44.82H141.86H141.6V44.42H143.37V44.74C143.25 44.7341 143.131 44.7656 143.03 44.83C142.955 44.898 142.905 44.9898 142.89 45.09C142.878 45.2365 142.878 45.3836 142.89 45.53V48.84C142.897 48.9199 142.897 49.0002 142.89 49.08H144.1C144.228 49.0883 144.356 49.0664 144.475 49.016C144.593 48.9657 144.697 48.8882 144.78 48.79C144.962 48.5269 145.047 48.2088 145.02 47.89H145.34V49.45L141.65 49.49Z" fill="#FCFCFC"/>
<path d="M154.28 46.07C154.259 45.6925 154.098 45.3363 153.83 45.07C153.696 44.9464 153.538 44.8509 153.366 44.7891C153.195 44.7273 153.012 44.7004 152.83 44.71C152.59 44.7094 152.353 44.7678 152.14 44.88C151.927 44.9904 151.743 45.1477 151.6 45.34C151.443 45.5522 151.321 45.7887 151.24 46.04C151.158 46.3294 151.117 46.6291 151.12 46.93C151.11 47.3289 151.189 47.7251 151.35 48.09C151.483 48.4039 151.701 48.6741 151.98 48.87C152.249 49.0579 152.571 49.1559 152.9 49.15C153.216 49.1497 153.528 49.0743 153.81 48.93C154.107 48.7921 154.362 48.5782 154.55 48.31L154.79 48.52C154.602 48.7854 154.368 49.0156 154.1 49.2C153.875 49.3438 153.628 49.4518 153.37 49.52C153.156 49.5683 152.939 49.5951 152.72 49.6C152.376 49.6036 152.036 49.5355 151.72 49.4C151.425 49.2755 151.159 49.0913 150.939 48.8589C150.718 48.6266 150.549 48.3512 150.44 48.05C150.318 47.7309 150.257 47.3917 150.26 47.05C150.256 46.71 150.31 46.3719 150.42 46.05C150.521 45.735 150.676 45.4405 150.88 45.18C151.091 44.9179 151.357 44.7061 151.66 44.56C152.003 44.3977 152.38 44.3189 152.76 44.33C153 44.3282 153.24 44.3619 153.47 44.43C153.706 44.5021 153.932 44.6064 154.14 44.74V44.38H154.58V46.04L154.28 46.07Z" fill="#FCFCFC"/>
<path d="M159.17 49.6101C158.768 49.618 158.369 49.5396 158 49.3801C157.698 49.2363 157.432 49.0281 157.22 48.7701C157.019 48.5146 156.87 48.2225 156.78 47.9101C156.681 47.6099 156.631 47.296 156.63 46.9801C156.63 46.6698 156.685 46.3619 156.79 46.0701C156.893 45.7623 157.049 45.4747 157.25 45.2201C157.465 44.9553 157.734 44.7403 158.04 44.5901C158.385 44.4313 158.761 44.3526 159.14 44.3601C159.529 44.3519 159.915 44.4304 160.27 44.5901C160.576 44.7403 160.845 44.9553 161.06 45.2201C161.36 45.588 161.56 46.027 161.64 46.4948C161.721 46.9625 161.679 47.443 161.52 47.8901C161.417 48.1979 161.261 48.4854 161.06 48.7401C160.85 49.0051 160.583 49.2203 160.28 49.3701C159.934 49.537 159.554 49.6193 159.17 49.6101ZM159.17 49.2301C159.422 49.2359 159.671 49.1738 159.89 49.0501C160.092 48.9231 160.263 48.7522 160.39 48.5501C160.523 48.3371 160.621 48.1041 160.68 47.8601C160.739 47.6145 160.77 47.3628 160.77 47.1101C160.773 46.8138 160.739 46.5183 160.67 46.2301C160.601 45.9577 160.49 45.6978 160.34 45.4601C160.205 45.2401 160.02 45.0551 159.8 44.9201C159.573 44.7865 159.314 44.7174 159.05 44.7201C158.796 44.7171 158.546 44.7865 158.33 44.9201C158.124 45.0416 157.951 45.2136 157.83 45.4201C157.697 45.6331 157.599 45.8661 157.54 46.1101C157.472 46.3576 157.438 46.6133 157.44 46.8701C157.441 47.1365 157.474 47.4019 157.54 47.6601C157.607 47.9299 157.711 48.189 157.85 48.4301C157.98 48.6613 158.161 48.8597 158.38 49.0101C158.626 49.1711 158.917 49.2483 159.21 49.2301H159.17Z" fill="#FCFCFC"/>
<path d="M167.49 49.5901L164.82 46.0501L164.67 45.8601C164.627 45.7855 164.577 45.7152 164.52 45.6501V48.4401V48.8001C164.526 48.91 164.526 49.0201 164.52 49.1301H164.79H165V49.5201H163.58V49.2101C163.686 49.2152 163.791 49.1873 163.88 49.1301C163.951 49.078 164.004 49.0044 164.03 48.9201C164.042 48.8204 164.042 48.7197 164.03 48.6201V44.8401H163.78H163.53V44.4401H164.48L167 47.7601L167.22 48.0601L167.41 48.3201V45.4001C167.41 45.2901 167.41 45.1901 167.41 45.0901C167.41 44.9901 167.41 44.9101 167.41 44.8401H167.14H166.88V44.4401H168.3V44.7601C168.183 44.7556 168.068 44.787 167.97 44.8501C167.898 44.919 167.852 45.0109 167.84 45.1101C167.829 45.2565 167.829 45.4036 167.84 45.5501V49.5501L167.49 49.5901Z" fill="#FCFCFC"/>
<path d="M173.27 46.0001C173.253 45.7706 173.192 45.5465 173.09 45.3401C172.992 45.1506 172.847 44.989 172.67 44.8701C172.47 44.7529 172.242 44.694 172.01 44.7001C171.775 44.6901 171.545 44.7727 171.37 44.9301C171.296 44.997 171.237 45.0789 171.198 45.1703C171.158 45.2617 171.138 45.3605 171.14 45.4601C171.133 45.6295 171.186 45.796 171.29 45.9301C171.411 46.0687 171.557 46.1839 171.72 46.2701C171.9 46.3701 172.1 46.4801 172.33 46.5801C172.56 46.6801 172.69 46.7401 172.88 46.8301C173.059 46.926 173.229 47.0364 173.39 47.1601C173.539 47.2804 173.662 47.4302 173.75 47.6001C173.853 47.8059 173.9 48.0347 173.888 48.2643C173.875 48.4939 173.804 48.7164 173.68 48.9101C173.535 49.1292 173.33 49.3026 173.09 49.4101C172.797 49.5369 172.479 49.5983 172.16 49.5901C171.94 49.5877 171.722 49.5574 171.51 49.5001C171.294 49.4327 171.086 49.3421 170.89 49.2301V49.5301H170.45V47.9501H170.8C170.796 48.1387 170.834 48.3259 170.91 48.4986C170.986 48.6712 171.098 48.8253 171.24 48.9501C171.508 49.1597 171.84 49.2694 172.18 49.2601C172.352 49.2636 172.523 49.2295 172.68 49.1601C172.819 49.0989 172.94 49.0024 173.03 48.8801C173.115 48.749 173.16 48.5962 173.16 48.4401C173.165 48.2567 173.101 48.0782 172.98 47.9401C172.851 47.8012 172.699 47.6861 172.53 47.6001C172.35 47.4962 172.163 47.406 171.97 47.3301L171.4 47.0601C171.224 46.9641 171.057 46.8538 170.9 46.7301C170.761 46.6023 170.643 46.4539 170.55 46.2901C170.463 46.1022 170.418 45.8972 170.42 45.6901C170.425 45.5443 170.448 45.3998 170.49 45.2601C170.55 45.0914 170.646 44.9373 170.77 44.808C170.894 44.6788 171.044 44.5772 171.21 44.5101C171.45 44.4226 171.705 44.3818 171.96 44.3901C172.166 44.3903 172.371 44.4171 172.57 44.4701C172.795 44.5173 173.006 44.6128 173.19 44.7501V44.4401H173.62V46.0001H173.27Z" fill="#FCFCFC"/>
<path d="M177.47 44.79C177.361 44.7804 177.251 44.8087 177.16 44.87C177.088 44.9195 177.038 44.9947 177.02 45.08C177.005 45.1795 177.005 45.2806 177.02 45.38V47.23C177.016 47.4918 177.04 47.7532 177.09 48.01C177.126 48.2217 177.201 48.4249 177.31 48.61C177.41 48.7834 177.56 48.9227 177.74 49.01C177.943 49.1075 178.165 49.1588 178.39 49.16C178.669 49.1678 178.945 49.0911 179.18 48.94C179.396 48.7881 179.557 48.5707 179.64 48.32C179.756 48.0171 179.81 47.6942 179.8 47.37V45.37C179.8 45.26 179.8 45.16 179.8 45.06C179.8 44.96 179.8 44.88 179.8 44.81H179.53H179.28V44.41H180.73V44.73C180.607 44.724 180.485 44.7554 180.38 44.82C180.304 44.886 180.257 44.9796 180.25 45.08C180.238 45.2265 180.238 45.3736 180.25 45.52V47.23C180.254 47.5474 180.214 47.8638 180.13 48.17C180.059 48.4378 179.937 48.6891 179.77 48.91C179.608 49.1143 179.399 49.2757 179.16 49.38C178.885 49.4977 178.589 49.5556 178.29 49.55C177.949 49.5658 177.609 49.5113 177.29 49.39C177.037 49.301 176.817 49.137 176.66 48.92C176.492 48.6913 176.376 48.4285 176.32 48.15C176.255 47.8206 176.222 47.4858 176.22 47.15V45.61C176.22 45.48 176.22 45.34 176.22 45.19C176.22 45.04 176.22 44.92 176.22 44.84H175.7V44.45H177.45L177.47 44.79Z" fill="#FCFCFC"/>
<path d="M182.63 49.49V49.18C182.75 49.1788 182.868 49.1442 182.97 49.08C183.045 49.0121 183.095 48.9203 183.11 48.82C183.11 48.7 183.11 48.56 183.11 48.38V45.38C183.11 45.27 183.11 45.17 183.11 45.07C183.11 44.97 183.11 44.89 183.11 44.82H182.84H182.58V44.42H184.35V44.74C184.23 44.7354 184.112 44.7668 184.01 44.83C183.935 44.898 183.885 44.9898 183.87 45.09C183.87 45.21 183.87 45.35 183.87 45.53V48.53C183.87 48.66 183.87 48.78 183.87 48.87C183.877 48.9499 183.877 49.0302 183.87 49.11H185.09C185.218 49.116 185.346 49.0931 185.463 49.0428C185.581 48.9926 185.686 48.9165 185.77 48.82C185.948 48.5553 186.029 48.2375 186 47.92H186.33V49.48L182.63 49.49Z" fill="#FCFCFC"/>
<path d="M191.48 46.0001C191.486 45.7701 191.455 45.5407 191.39 45.3201C191.344 45.1566 191.246 45.0126 191.11 44.9101C190.947 44.8134 190.759 44.768 190.57 44.7801H190.05V48.8601C190.057 48.9433 190.057 49.0269 190.05 49.1101H190.35H190.64V49.5001H188.82V49.1901C188.938 49.191 189.053 49.1561 189.15 49.0901C189.222 49.0195 189.271 48.9289 189.29 48.8301C189.29 48.7101 189.29 48.5601 189.29 48.3901V44.8101H188.69C188.567 44.7987 188.444 44.8195 188.332 44.8704C188.219 44.9212 188.122 45.0004 188.05 45.1001C187.899 45.3785 187.83 45.694 187.85 46.0101H187.51L187.56 44.4601H191.79V46.0101L191.48 46.0001Z" fill="#FCFCFC"/>
<path d="M193 49.49V49.17C193.06 49.1745 193.119 49.1671 193.176 49.1482C193.233 49.1293 193.285 49.0994 193.33 49.06C193.416 48.967 193.484 48.8584 193.53 48.74L193.7 48.3L195.15 44.3H195.43L197.01 48.3C197.01 48.39 197.09 48.51 197.13 48.67C197.174 48.7989 197.198 48.9339 197.2 49.07H197.44H197.66V49.46H196V49.15C196.17 49.15 196.28 49.15 196.33 49.04C196.359 49.0041 196.381 48.9623 196.393 48.9175C196.405 48.8727 196.407 48.8259 196.4 48.78C196.388 48.6768 196.361 48.5758 196.32 48.48L196.11 47.9H194.35L194.14 48.53C194.14 48.62 194.08 48.71 194.05 48.8L193.95 49.05H194.23H194.49V49.45L193 49.49ZM194.4 47.59H195.91L195.46 46.37C195.4 46.21 195.34 46.06 195.29 45.9C195.24 45.74 195.19 45.6 195.15 45.45C195.15 45.57 195.07 45.71 195.02 45.85L194.86 46.32L194.4 47.59Z" fill="#FCFCFC"/>
<path d="M203.24 49.5901L200.57 46.0501L200.42 45.8601L200.27 45.6501V48.4401V48.8001C200.276 48.91 200.276 49.0201 200.27 49.1301H200.54H200.8V49.5201H199.38V49.2101C199.486 49.2152 199.591 49.1873 199.68 49.1301C199.752 49.0806 199.802 49.0054 199.82 48.9201C199.854 48.8236 199.87 48.7222 199.87 48.6201V44.8401H199.62H199.37V44.4401H200.31L202.84 47.7601L203.06 48.0601L203.25 48.3201V45.4001C203.25 45.2901 203.25 45.1901 203.25 45.0901C203.25 44.9901 203.25 44.9101 203.25 44.8401H203H202.75V44.4401H204.17V44.7601C204.053 44.7556 203.938 44.787 203.84 44.8501C203.768 44.919 203.722 45.0109 203.71 45.1101C203.698 45.2565 203.698 45.4036 203.71 45.5501V49.5501L203.24 49.5901Z" fill="#FCFCFC"/>
<path d="M209.92 46.0001C209.918 45.7699 209.884 45.5411 209.82 45.3201C209.774 45.1566 209.675 45.0126 209.54 44.9101C209.377 44.8134 209.189 44.768 209 44.7801H208.48V48.5101C208.48 48.6401 208.48 48.7601 208.48 48.8601C208.487 48.9433 208.487 49.0269 208.48 49.1101H208.78H209V49.5001H207.18V49.1901C207.3 49.1889 207.418 49.1543 207.52 49.0901C207.589 49.0186 207.634 48.9279 207.65 48.8301C207.65 48.7101 207.65 48.5601 207.65 48.3901V44.8101H207.05C206.927 44.7997 206.804 44.8209 206.692 44.8717C206.58 44.9225 206.483 45.0011 206.41 45.1001C206.259 45.3785 206.19 45.694 206.21 46.0101H205.88V44.4601H210.11V46.0101L209.92 46.0001Z" fill="#FCFCFC"/>
</g>
<defs>
<clipPath id="clip0">
<rect width="210" height="54" fill="white"/>
</clipPath>
</defs>
</svg>
